<svg version="1.1" viewBox="0.0 0.0 726.8503937007874 583.3175853018373" fill="none" stroke="none" stroke-linecap="square" stroke-miterlimit="10" xmlns:xlink="http://www.w3.org/1999/xlink" xmlns="http://www.w3.org/2000/svg"><clipPath id="p.0"><path d="m0 0l726.8504 0l0 583.31757l-726.8504 0l0 -583.31757z" clip-rule="nonzero"/></clipPath><g clip-path="url(#p.0)"><path fill="#000000" fill-opacity="0.0" d="m0 0l726.8504 0l0 583.31757l-726.8504 0z" fill-rule="evenodd"/><path fill="#000000" d="m0.007874016 0.005249344l726.83466 0l0 583.30707l-726.83466 0z" fill-rule="evenodd"/><path fill="#000000" d="m273.42258 111.65879l0 0c0 -49.705624 40.294373 -90.0 90.0 -90.0l0 0c23.869476 0 46.761322 9.482117 63.639618 26.360392c16.878265 16.87827 26.360382 39.770123 26.360382 63.639606l0 0c0 49.705635 -40.294373 90.00001 -90.0 90.00001l0 0c-49.705627 0 -90.0 -40.294373 -90.0 -90.00001z" fill-rule="evenodd"/><path stroke="#ffffff" stroke-width="3.0" stroke-linejoin="round" stroke-linecap="butt" d="m273.42258 111.65879l0 0c0 -49.705624 40.294373 -90.0 90.0 -90.0l0 0c23.869476 0 46.761322 9.482117 63.639618 26.360392c16.878265 16.87827 26.360382 39.770123 26.360382 63.639606l0 0c0 49.705635 -40.294373 90.00001 -90.0 90.00001l0 0c-49.705627 0 -90.0 -40.294373 -90.0 -90.00001z" fill-rule="evenodd"/><path fill="#ffffff" d="m341.88156 101.05817l0 10.765625q0 1.84375 0.84375 2.734375q0.859375 0.875 2.6875 0.875q1.96875 0 2.75 -0.859375q0.796875 -0.859375 0.796875 -2.734375l0 -10.78125l3.765625 0l0 10.78125q0 3.1875 -1.859375 4.984375q-1.859375 1.78125 -5.453125 1.78125q-3.625 0 -5.46875 -1.765625q-1.84375 -1.765625 -1.84375 -5.0l0 -10.78125l3.78125 0zm18.820312 4.40625q2.53125 0 3.90625 1.0q1.375 1.0 1.5625 2.9375l-3.25 0q-0.0625 -0.875 -0.65625 -1.265625q-0.578125 -0.40625 -1.671875 -0.40625q-0.984375 0 -1.4375 0.296875q-0.453125 0.296875 -0.453125 0.859375q0 0.5625 0.59375 0.9375q0.59375 0.375 2.390625 0.703125q2.859375 0.5625 3.828125 1.4375q0.984375 0.859375 0.984375 2.265625q0 2.109375 -1.546875 3.21875q-1.53125 1.09375 -4.109375 1.09375q-2.578125 0 -4.15625 -1.09375q-1.578125 -1.109375 -1.6875 -3.28125l3.25 0q0 0.984375 0.734375 1.53125q0.75 0.546875 1.875 0.546875q1.0 0 1.625 -0.421875q0.625 -0.421875 0.625 -1.15625q0 -0.640625 -0.8125 -1.046875q-0.8125 -0.421875 -2.96875 -0.859375q-2.125 -0.421875 -3.078125 -1.203125q-0.953125 -0.796875 -0.953125 -2.125q0 -1.96875 1.390625 -2.96875q1.40625 -1.0 4.015625 -1.0zm13.53125 0q2.75 0 4.390625 1.890625q1.65625 1.890625 1.65625 4.828125l-0.015625 0.640625l-8.953125 0q0.0625 1.59375 0.828125 2.375q0.765625 0.765625 2.203125 0.765625q0.921875 0 1.703125 -0.46875q0.796875 -0.46875 1.0 -1.140625l3.0 0q-0.6875 2.109375 -2.140625 3.15625q-1.4375 1.03125 -3.671875 1.03125q-2.875 0 -4.609375 -1.8125q-1.734375 -1.828125 -1.734375 -4.71875q0 -2.78125 1.78125 -4.65625q1.78125 -1.890625 4.5625 -1.890625zm-2.921875 5.203125l5.53125 0q-0.234375 -1.375 -0.875 -2.0q-0.640625 -0.640625 -1.84375 -0.640625q-1.25 0 -1.984375 0.703125q-0.71875 0.703125 -0.828125 1.9375zm18.203125 -5.203125q0.21875 0 0.40625 0.03125q0.1875 0.015625 0.359375 0.078125l0 3.171875q-0.296875 -0.0625 -0.578125 -0.09375q-0.265625 -0.03125 -0.640625 -0.03125q-1.71875 0 -2.546875 1.0625q-0.828125 1.046875 -0.828125 2.8125l0 5.703125l-3.40625 0l0 -12.40625l3.234375 0l0 2.296875l0.046875 0q0.546875 -1.21875 1.609375 -1.921875q1.078125 -0.703125 2.34375 -0.703125z" fill-rule="nonzero"/><path fill="#000000" d="m273.42258 471.65878l0 0c0 -49.705627 40.294373 -90.0 90.0 -90.0l0 0c23.869476 0 46.761322 9.482117 63.639618 26.360413c16.878265 16.878265 26.360382 39.77011 26.360382 63.639587l0 0c0 49.705658 -40.294373 90.00003 -90.0 90.00003l0 0c-49.705627 0 -90.0 -40.294373 -90.0 -90.00003z" fill-rule="evenodd"/><path stroke="#ffffff" stroke-width="3.0" stroke-linejoin="round" stroke-linecap="butt" d="m273.42258 471.65878l0 0c0 -49.705627 40.294373 -90.0 90.0 -90.0l0 0c23.869476 0 46.761322 9.482117 63.639618 26.360413c16.878265 16.878265 26.360382 39.77011 26.360382 63.639587l0 0c0 49.705658 -40.294373 90.00003 -90.0 90.00003l0 0c-49.705627 0 -90.0 -40.294373 -90.0 -90.00003z" fill-rule="evenodd"/><path fill="#ffffff" d="m334.86008 461.05817l4.0 11.78125l0.046875 0l3.78125 -11.734375l0.03125 -0.046875l5.28125 0l0 17.140625l-3.53125 0l0 -12.140625l-0.046875 0l-4.1875 12.140625l-2.90625 0l-4.203125 -12.03125l-0.046875 0l0 12.03125l-3.53125 0l0 -17.140625l5.3125 0zm22.132812 4.40625q2.921875 0 4.671875 1.796875q1.765625 1.796875 1.765625 4.75q0 2.96875 -1.78125 4.75q-1.78125 1.78125 -4.65625 1.78125q-2.890625 0 -4.65625 -1.796875q-1.75 -1.796875 -1.75 -4.734375q0 -2.9375 1.734375 -4.734375q1.734375 -1.8125 4.671875 -1.8125zm-3.0 6.546875q0 1.953125 0.796875 2.953125q0.8125 1.0 2.203125 1.0q1.453125 0 2.234375 -1.03125q0.78125 -1.03125 0.78125 -2.921875q0 -1.859375 -0.765625 -2.921875q-0.75 -1.0625 -2.28125 -1.0625q-1.359375 0 -2.171875 1.0q-0.796875 0.984375 -0.796875 2.984375zm23.722656 -10.953125l0 17.140625l-3.234375 0l0 -1.578125l-0.046875 0q-0.5625 0.9375 -1.53125 1.4375q-0.953125 0.484375 -2.234375 0.484375q-2.546875 0 -4.0625 -1.875q-1.5 -1.875 -1.5 -4.78125q0 -2.765625 1.484375 -4.59375q1.484375 -1.828125 4.0 -1.828125q1.171875 0 2.125 0.46875q0.96875 0.46875 1.546875 1.359375l0.046875 0l0 -6.234375l3.40625 0zm-9.21875 10.921875q0 1.734375 0.8125 2.859375q0.8125 1.125 2.1875 1.125q1.421875 0 2.171875 -1.046875q0.765625 -1.046875 0.765625 -2.953125q0 -1.8125 -0.75 -2.875q-0.734375 -1.0625 -2.203125 -1.0625q-1.40625 0 -2.203125 1.0625q-0.78125 1.0625 -0.78125 2.890625zm17.519531 -6.515625q2.75 0 4.390625 1.890625q1.65625 1.890625 1.65625 4.828125l-0.015625 0.640625l-8.953125 0q0.0625 1.59375 0.828125 2.375q0.765625 0.765625 2.203125 0.765625q0.921875 0 1.703125 -0.46875q0.796875 -0.46875 1.0 -1.140625l3.0 0q-0.6875 2.109375 -2.140625 3.15625q-1.4375 1.03125 -3.671875 1.03125q-2.875 0 -4.609375 -1.8125q-1.734375 -1.828125 -1.734375 -4.71875q0 -2.78125 1.78125 -4.65625q1.78125 -1.890625 4.5625 -1.890625zm-2.921875 5.203125l5.53125 0q-0.234375 -1.375 -0.875 -2.0q-0.640625 -0.640625 -1.84375 -0.640625q-1.25 0 -1.984375 0.703125q-0.71875 0.703125 -0.828125 1.9375zm14.484375 -9.609375l0 17.140625l-3.421875 0l0 -17.140625l3.421875 0z" fill-rule="nonzero"/><path fill="#000000" fill-opacity="0.0" d="m453.42258 111.65879c45.007874 0 90.01572 45.00788 90.01572 90.015755" fill-rule="evenodd"/><path stroke="#f3f3f3" stroke-width="3.0" stroke-linejoin="round" stroke-linecap="butt" d="m453.42258 111.65879c22.503937 0 45.007874 11.251968 61.885834 28.129921c8.438965 8.43898 15.471436 18.284454 20.394165 28.833176c1.2307129 2.6371765 2.3295288 5.3183136 3.2854614 8.03241c0.47802734 1.3570404 0.9202881 2.722351 1.3255005 4.0944977c0.20257568 0.68608093 0.39587402 1.3738708 0.57977295 2.0632172l0.2616577 1.0079346" fill-rule="evenodd"/><path fill="#f3f3f3" stroke="#f3f3f3" stroke-width="3.0" stroke-linecap="butt" d="m536.2398 184.44852l6.642151 12.875748l3.1882324 -14.132889z" fill-rule="evenodd"/><path fill="#000000" fill-opacity="0.0" d="m543.42255 381.65878c0 45.007874 -44.992096 90.01575 -89.98422 90.01575" fill-rule="evenodd"/><path stroke="#f3f3f3" stroke-width="3.0" stroke-linejoin="round" stroke-linecap="butt" d="m543.42255 381.65878c0 22.503937 -11.247986 45.007874 -28.120056 61.885834c-8.436035 8.438965 -18.278046 15.471466 -28.82309 20.394196c-2.6362305 1.2306824 -5.316437 2.3295288 -8.029602 3.2854614c-1.3565369 0.47802734 -2.7213745 0.9202881 -4.093048 1.32547c-0.68585205 0.2026062 -1.3734131 0.39590454 -2.0625 0.57980347l-1.0015564 0.26010132" fill-rule="evenodd"/><path fill="#f3f3f3" stroke="#f3f3f3" stroke-width="3.0" stroke-linecap="butt" d="m470.6637 464.47452l-12.875153 6.6433105l14.133179 3.1869202z" fill-rule="evenodd"/><path fill="#000000" fill-opacity="0.0" d="m273.42258 471.65878c-44.992126 0 -89.98425 -44.992126 -89.98425 -89.98425" fill-rule="evenodd"/><path stroke="#f3f3f3" stroke-width="3.0" stroke-linejoin="round" stroke-linecap="butt" d="m273.42258 471.65878c-22.496063 0 -44.992126 -11.248016 -61.86418 -28.120056c-8.43602 -8.436035 -15.466034 -18.278076 -20.387054 -28.82309c-1.2302551 -2.6362305 -2.3287048 -5.316437 -3.2843475 -8.029602c-0.47781372 -1.3565674 -0.9199219 -2.7213745 -1.3249817 -4.0930786c-0.2025299 -0.68585205 -0.39578247 -1.3733826 -0.5796051 -2.0625l-0.259964 -1.0014343" fill-rule="evenodd"/><path fill="#f3f3f3" stroke="#f3f3f3" stroke-width="3.0" stroke-linecap="butt" d="m190.63759 398.90024l-6.642746 -12.875458l-3.1875458 14.133057z" fill-rule="evenodd"/><path fill="#000000" fill-opacity="0.0" d="m183.42258 201.6588c0 -44.992126 45.007874 -89.98426 90.01575 -89.98426" fill-rule="evenodd"/><path stroke="#f3f3f3" stroke-width="3.0" stroke-linejoin="round" stroke-linecap="butt" d="m183.42258 201.6588c0 -22.496063 11.251968 -44.992126 28.129913 -61.86418c8.43898 -8.43602 18.284454 -15.466042 28.833176 -20.387054c2.6371765 -1.2302551 5.3183136 -2.3286972 8.03241 -3.2843323c1.3570404 -0.47782898 2.722351 -0.9199524 4.0944977 -1.3250046c0.68608093 -0.20251465 1.3738708 -0.39578247 2.0632172 -0.5795975l1.007843 -0.26153564" fill-rule="evenodd"/><path fill="#f3f3f3" stroke="#f3f3f3" stroke-width="3.0" stroke-linecap="butt" d="m256.212 118.87229l12.876007 -6.641609l-14.132736 -3.1887817z" fill-rule="evenodd"/><path fill="#000000" fill-opacity="0.0" d="m23.72441 290.92258l679.40155 1.4803162" fill-rule="evenodd"/><path stroke="#ffffff" stroke-width="2.0" stroke-linejoin="round" stroke-linecap="butt" stroke-dasharray="8.0,6.0" d="m23.72441 290.92258l679.40155 1.4803162" fill-rule="evenodd"/><path fill="#000000" fill-opacity="0.0" d="m318.4147 255.88191l90.01575 0l0 80.88188l-90.01575 0z" fill-rule="evenodd"/><path fill="#ffffff" d="m339.79367 271.261l1.515625 9.8125l0.046875 0l5.640625 -9.8125l2.109375 0l-2.40625 11.421875l-1.46875 0l2.34375 -10.0l-0.03125 0l-5.8125 9.984375l-1.46875 0l-1.484375 -9.984375l-0.03125 0l-2.0 10.0l-1.46875 0l2.40625 -11.421875l2.109375 0zm13.734375 2.953125q1.5 0 2.25 0.53125q0.765625 0.515625 0.765625 1.578125q0 0.25 -0.046875 0.5625q-0.046875 0.3125 -0.109375 0.546875l-0.734375 3.125q-0.109375 0.484375 -0.109375 0.71875q0 0.21875 0.078125 0.359375q0.09375 0.140625 0.328125 0.140625q0.109375 0 0.203125 -0.03125l0.21875 -0.078125l-0.203125 1.015625q-0.15625 0.078125 -0.40625 0.140625q-0.25 0.0625 -0.4375 0.0625q-0.484375 0 -0.78125 -0.265625q-0.28125 -0.265625 -0.28125 -0.78125q0 -0.078125 0.015625 -0.125l-0.046875 -0.046875q-0.5 0.65625 -1.171875 0.9375q-0.671875 0.28125 -1.59375 0.28125q-1.171875 0 -1.859375 -0.59375q-0.671875 -0.609375 -0.671875 -1.75q0 -1.203125 0.828125 -1.875q0.828125 -0.6875 3.765625 -0.890625q0.875 -0.0625 1.265625 -0.3125q0.390625 -0.25 0.390625 -0.953125q0 -0.546875 -0.453125 -0.8125q-0.453125 -0.28125 -1.203125 -0.28125q-0.890625 0 -1.5 0.390625q-0.609375 0.375 -0.71875 1.09375l-1.359375 0q0.171875 -1.28125 1.140625 -1.984375q0.984375 -0.703125 2.4375 -0.703125zm1.265625 4.234375q-0.484375 0.328125 -1.625 0.4375q-1.6875 0.140625 -2.28125 0.515625q-0.59375 0.375 -0.59375 1.109375q0 0.546875 0.421875 0.859375q0.4375 0.296875 1.078125 0.296875q0.875 0 1.453125 -0.3125q0.59375 -0.328125 0.921875 -0.859375q0.34375 -0.53125 0.65625 -2.046875l-0.03125 0zm6.6484375 -6.484375l-0.5 2.4375l1.640625 0l-0.25 1.203125l-1.65625 0l-1.0 4.828125q-0.0625 0.28125 -0.0625 0.578125q0 0.296875 0.21875 0.4375q0.21875 0.125 0.59375 0.125q0.15625 0 0.34375 -0.03125q0.1875 -0.03125 0.4375 -0.109375l-0.234375 1.234375l0 0.015625q-0.265625 0.046875 -0.5 0.0625q-0.234375 0.03125 -0.46875 0.03125q-0.96875 0 -1.421875 -0.34375q-0.4375 -0.359375 -0.4375 -1.0q0 -0.140625 0.015625 -0.34375q0.03125 -0.203125 0.078125 -0.390625l1.078125 -5.09375l-1.390625 0l0.25 -1.203125l1.40625 0l0.5 -2.4375l1.359375 0zm5.3203125 2.25q1.75 0 2.625 0.921875q0.875 0.921875 0.875 2.734375q0 0.265625 -0.046875 0.609375q-0.046875 0.328125 -0.078125 0.46875l-6.21875 0q-0.03125 0.203125 -0.046875 0.390625q0 0.171875 0 0.328125q0 0.90625 0.625 1.453125q0.625 0.546875 1.515625 0.546875q0.859375 0 1.46875 -0.390625q0.609375 -0.40625 0.90625 -1.1875l1.359375 0q-0.328125 1.359375 -1.34375 2.078125q-1.015625 0.71875 -2.390625 0.71875q-1.6875 0 -2.609375 -0.921875q-0.90625 -0.9375 -0.90625 -2.4375q0 -2.25 1.234375 -3.78125q1.25 -1.53125 3.03125 -1.53125zm-2.65625 3.53125l4.796875 0q0.015625 -0.0625 0.015625 -0.109375q0 -0.046875 0 -0.109375q0 -0.96875 -0.515625 -1.53125q-0.515625 -0.578125 -1.453125 -0.578125q-0.984375 0 -1.734375 0.578125q-0.734375 0.5625 -1.109375 1.75zm12.625 -3.546875q0.203125 0 0.25 0.015625l-0.3125 1.453125q-0.046875 -0.015625 -0.328125 -0.015625q-0.953125 0 -1.453125 0.296875q-0.484375 0.28125 -1.015625 0.875q-0.515625 0.578125 -0.875 2.1875l-0.78125 3.671875l-1.359375 0l1.734375 -8.28125l1.28125 0l-0.40625 1.78125l0.03125 0q0.328125 -0.59375 0.734375 -1.0q0.40625 -0.40625 0.875 -0.640625q0.296875 -0.15625 0.59375 -0.21875q0.3125 -0.078125 0.65625 -0.109375q0.125 -0.015625 0.1875 -0.015625q0.078125 0 0.1875 0zm3.21875 -2.9375l-0.359375 1.65625l-1.375 0l0.359375 -1.65625l1.375 0zm-0.671875 3.140625l-1.734375 8.28125l-1.359375 0l1.734375 -8.28125l1.359375 0zm4.9765625 -0.1875q1.5 0 2.25 0.53125q0.765625 0.515625 0.765625 1.578125q0 0.25 -0.046875 0.5625q-0.046875 0.3125 -0.109375 0.546875l-0.734375 3.125q-0.109375 0.484375 -0.109375 0.71875q0 0.21875 0.078125 0.359375q0.09375 0.140625 0.328125 0.140625q0.109375 0 0.203125 -0.03125l0.21875 -0.078125l-0.203125 1.015625q-0.15625 0.078125 -0.40625 0.140625q-0.25 0.0625 -0.4375 0.0625q-0.484375 0 -0.78125 -0.265625q-0.28125 -0.265625 -0.28125 -0.78125q0 -0.078125 0.015625 -0.125l-0.046875 -0.046875q-0.5 0.65625 -1.171875 0.9375q-0.671875 0.28125 -1.59375 0.28125q-1.171875 0 -1.859375 -0.59375q-0.671875 -0.609375 -0.671875 -1.75q0 -1.203125 0.828125 -1.875q0.828125 -0.6875 3.765625 -0.890625q0.875 -0.0625 1.265625 -0.3125q0.390625 -0.25 0.390625 -0.953125q0 -0.546875 -0.453125 -0.8125q-0.453125 -0.28125 -1.203125 -0.28125q-0.890625 0 -1.5 0.390625q-0.609375 0.375 -0.71875 1.09375l-1.359375 0q0.171875 -1.28125 1.140625 -1.984375q0.984375 -0.703125 2.4375 -0.703125zm1.265625 4.234375q-0.484375 0.328125 -1.625 0.4375q-1.6875 0.140625 -2.28125 0.515625q-0.59375 0.375 -0.59375 1.109375q0 0.546875 0.421875 0.859375q0.4375 0.296875 1.078125 0.296875q0.875 0 1.453125 -0.3125q0.59375 -0.328125 0.921875 -0.859375q0.34375 -0.53125 0.65625 -2.046875l-0.03125 0zm6.2890625 -7.1875l-2.40625 11.421875l-1.359375 0l2.40625 -11.421875l1.359375 0z" fill-rule="nonzero"/><path fill="#ffffff" d="m343.8796 300.261l1.171875 9.9375l0.03125 0l5.421875 -9.9375l1.625 0l-6.453125 11.421875l-1.703125 0l-1.640625 -11.421875l1.546875 0zm10.84375 0l-0.359375 1.65625l-1.375 0l0.359375 -1.65625l1.375 0zm-0.671875 3.140625l-1.734375 8.28125l-1.359375 0l1.734375 -8.28125l1.359375 0zm6.3359375 -0.203125q0.203125 0 0.25 0.015625l-0.3125 1.453125q-0.046875 -0.015625 -0.328125 -0.015625q-0.953125 0 -1.453125 0.296875q-0.484375 0.28125 -1.015625 0.875q-0.515625 0.578125 -0.875 2.1875l-0.78125 3.671875l-1.359375 0l1.734375 -8.28125l1.28125 0l-0.40625 1.78125l0.03125 0q0.328125 -0.59375 0.734375 -1.0q0.40625 -0.40625 0.875 -0.640625q0.296875 -0.15625 0.59375 -0.21875q0.3125 -0.078125 0.65625 -0.109375q0.125 -0.015625 0.1875 -0.015625q0.078125 0 0.1875 0zm3.640625 -2.234375l-0.5 2.4375l1.640625 0l-0.25 1.203125l-1.65625 0l-1.0 4.828125q-0.0625 0.28125 -0.0625 0.578125q0 0.296875 0.21875 0.4375q0.21875 0.125 0.59375 0.125q0.15625 0 0.34375 -0.03125q0.1875 -0.03125 0.4375 -0.109375l-0.234375 1.234375l0 0.015625q-0.265625 0.046875 -0.5 0.0625q-0.234375 0.03125 -0.46875 0.03125q-0.96875 0 -1.421875 -0.34375q-0.4375 -0.359375 -0.4375 -1.0q0 -0.140625 0.015625 -0.34375q0.03125 -0.203125 0.078125 -0.390625l1.078125 -5.09375l-1.390625 0l0.25 -1.203125l1.40625 0l0.5 -2.4375l1.359375 0zm3.8515625 2.4375l-1.109375 5.078125q-0.140625 0.65625 -0.140625 1.046875q0 0.53125 0.375 0.84375q0.390625 0.296875 1.0625 0.296875q1.109375 0 1.921875 -0.8125q0.8125 -0.8125 1.03125 -1.84375l0.96875 -4.609375l1.359375 0l-1.75 8.28125l-1.3125 0l0.265625 -1.25l-0.046875 0q-0.53125 0.71875 -1.3125 1.09375q-0.765625 0.359375 -1.625 0.359375q-1.171875 0 -1.734375 -0.515625q-0.5625 -0.53125 -0.5625 -1.625q0 -0.3125 0.0625 -0.734375q0.0625 -0.421875 0.1875 -0.984375l0.984375 -4.625l1.375 0zm10.4765625 -0.1875q1.5 0 2.25 0.53125q0.765625 0.515625 0.765625 1.578125q0 0.25 -0.046875 0.5625q-0.046875 0.3125 -0.109375 0.546875l-0.734375 3.125q-0.109375 0.484375 -0.109375 0.71875q0 0.21875 0.078125 0.359375q0.09375 0.140625 0.328125 0.140625q0.109375 0 0.203125 -0.03125l0.21875 -0.078125l-0.203125 1.015625q-0.15625 0.078125 -0.40625 0.140625q-0.25 0.0625 -0.4375 0.0625q-0.484375 0 -0.78125 -0.265625q-0.28125 -0.265625 -0.28125 -0.78125q0 -0.078125 0.015625 -0.125l-0.046875 -0.046875q-0.5 0.65625 -1.171875 0.9375q-0.671875 0.28125 -1.59375 0.28125q-1.171875 0 -1.859375 -0.59375q-0.671875 -0.609375 -0.671875 -1.75q0 -1.203125 0.828125 -1.875q0.828125 -0.6875 3.765625 -0.890625q0.875 -0.0625 1.265625 -0.3125q0.390625 -0.25 0.390625 -0.953125q0 -0.546875 -0.453125 -0.8125q-0.453125 -0.28125 -1.203125 -0.28125q-0.890625 0 -1.5 0.390625q-0.609375 0.375 -0.71875 1.09375l-1.359375 0q0.171875 -1.28125 1.140625 -1.984375q0.984375 -0.703125 2.4375 -0.703125zm1.265625 4.234375q-0.484375 0.328125 -1.625 0.4375q-1.6875 0.140625 -2.28125 0.515625q-0.59375 0.375 -0.59375 1.109375q0 0.546875 0.421875 0.859375q0.4375 0.296875 1.078125 0.296875q0.875 0 1.453125 -0.3125q0.59375 -0.328125 0.921875 -0.859375q0.34375 -0.53125 0.65625 -2.046875l-0.03125 0zm6.2890625 -7.1875l-2.40625 11.421875l-1.359375 0l2.40625 -11.421875l1.359375 0z" fill-rule="nonzero"/><path fill="#000000" fill-opacity="0.0" d="m512.5092 427.53412l61.82672 0l0 44.125977l-61.82672 0z" fill-rule="evenodd"/><path fill="#ffffff" d="m537.55927 442.53525l-2.421875 11.421875l-1.28125 0l0.296875 -1.1875l-0.03125 0q-0.53125 0.71875 -1.171875 1.0625q-0.640625 0.328125 -1.5625 0.328125q-1.515625 0 -2.390625 -0.921875q-0.859375 -0.921875 -0.859375 -2.484375q0 -2.078125 1.296875 -3.671875q1.296875 -1.59375 3.296875 -1.59375q0.96875 0 1.65625 0.375q0.6875 0.375 0.90625 1.078125l0.03125 0l0.890625 -4.40625l1.34375 0zm-8.0625 8.21875q0 1.078125 0.53125 1.640625q0.546875 0.546875 1.578125 0.546875q1.390625 0 2.3125 -1.296875q0.9375 -1.296875 0.9375 -2.8125q0 -0.953125 -0.5625 -1.546875q-0.5625 -0.59375 -1.53125 -0.59375q-1.421875 0 -2.34375 1.234375q-0.921875 1.21875 -0.921875 2.828125zm12.28125 -5.265625q1.5 0 2.25 0.53125q0.765625 0.515625 0.765625 1.578125q0 0.25 -0.046875 0.5625q-0.046875 0.3125 -0.109375 0.546875l-0.734375 3.125q-0.109375 0.484375 -0.109375 0.71875q0 0.21875 0.078125 0.359375q0.09375 0.140625 0.328125 0.140625q0.109375 0 0.203125 -0.03125l0.21875 -0.078125l-0.203125 1.015625q-0.15625 0.078125 -0.40625 0.140625q-0.25 0.0625 -0.4375 0.0625q-0.484375 0 -0.78125 -0.265625q-0.28125 -0.265625 -0.28125 -0.78125q0 -0.078125 0.015625 -0.125l-0.046875 -0.046875q-0.5 0.65625 -1.171875 0.9375q-0.671875 0.28125 -1.59375 0.28125q-1.171875 0 -1.859375 -0.59375q-0.671875 -0.609375 -0.671875 -1.75q0 -1.203125 0.828125 -1.875q0.828125 -0.6875 3.765625 -0.890625q0.875 -0.0625 1.265625 -0.3125q0.390625 -0.25 0.390625 -0.953125q0 -0.546875 -0.453125 -0.8125q-0.453125 -0.28125 -1.203125 -0.28125q-0.890625 0 -1.5 0.390625q-0.609375 0.375 -0.71875 1.09375l-1.359375 0q0.171875 -1.28125 1.140625 -1.984375q0.984375 -0.703125 2.4375 -0.703125zm1.265625 4.234375q-0.484375 0.328125 -1.625 0.4375q-1.6875 0.140625 -2.28125 0.515625q-0.59375 0.375 -0.59375 1.109375q0 0.546875 0.421875 0.859375q0.4375 0.296875 1.078125 0.296875q0.875 0 1.453125 -0.3125q0.59375 -0.328125 0.921875 -0.859375q0.34375 -0.53125 0.65625 -2.046875l-0.03125 0zm6.6484375 -6.484375l-0.5 2.4375l1.640625 0l-0.25 1.203125l-1.65625 0l-1.0 4.828125q-0.0625 0.28125 -0.0625 0.578125q0 0.296875 0.21875 0.4375q0.21875 0.125 0.59375 0.125q0.15625 0 0.34375 -0.03125q0.1875 -0.03125 0.4375 -0.109375l-0.234375 1.234375l0 0.015625q-0.265625 0.046875 -0.5 0.0625q-0.234375 0.03125 -0.46875 0.03125q-0.96875 0 -1.421875 -0.34375q-0.4375 -0.359375 -0.4375 -1.0q0 -0.140625 0.015625 -0.34375q0.03125 -0.203125 0.078125 -0.390625l1.078125 -5.09375l-1.390625 0l0.25 -1.203125l1.40625 0l0.5 -2.4375l1.359375 0zm5.4296875 2.25q1.5 0 2.25 0.53125q0.765625 0.515625 0.765625 1.578125q0 0.25 -0.046875 0.5625q-0.046875 0.3125 -0.109375 0.546875l-0.734375 3.125q-0.109375 0.484375 -0.109375 0.71875q0 0.21875 0.078125 0.359375q0.09375 0.140625 0.328125 0.140625q0.109375 0 0.203125 -0.03125l0.21875 -0.078125l-0.203125 1.015625q-0.15625 0.078125 -0.40625 0.140625q-0.25 0.0625 -0.4375 0.0625q-0.484375 0 -0.78125 -0.265625q-0.28125 -0.265625 -0.28125 -0.78125q0 -0.078125 0.015625 -0.125l-0.046875 -0.046875q-0.5 0.65625 -1.171875 0.9375q-0.671875 0.28125 -1.59375 0.28125q-1.171875 0 -1.859375 -0.59375q-0.671875 -0.609375 -0.671875 -1.75q0 -1.203125 0.828125 -1.875q0.828125 -0.6875 3.765625 -0.890625q0.875 -0.0625 1.265625 -0.3125q0.390625 -0.25 0.390625 -0.953125q0 -0.546875 -0.453125 -0.8125q-0.453125 -0.28125 -1.203125 -0.28125q-0.890625 0 -1.5 0.390625q-0.609375 0.375 -0.71875 1.09375l-1.359375 0q0.171875 -1.28125 1.140625 -1.984375q0.984375 -0.703125 2.4375 -0.703125zm1.265625 4.234375q-0.484375 0.328125 -1.625 0.4375q-1.6875 0.140625 -2.28125 0.515625q-0.59375 0.375 -0.59375 1.109375q0 0.546875 0.421875 0.859375q0.4375 0.296875 1.078125 0.296875q0.875 0 1.453125 -0.3125q0.59375 -0.328125 0.921875 -0.859375q0.34375 -0.53125 0.65625 -2.046875l-0.03125 0z" fill-rule="nonzero"/><path fill="#000000" fill-opacity="0.0" d="m152.50919 427.53412l61.826767 0l0 44.125977l-61.826767 0z" fill-rule="evenodd"/><path fill="#ffffff" d="m177.5593 442.53525l-2.421875 11.421875l-1.28125 0l0.296875 -1.1875l-0.03125 0q-0.53125 0.71875 -1.171875 1.0625q-0.640625 0.328125 -1.5625 0.328125q-1.515625 0 -2.390625 -0.921875q-0.859375 -0.921875 -0.859375 -2.484375q0 -2.078125 1.296875 -3.671875q1.296875 -1.59375 3.296875 -1.59375q0.96875 0 1.65625 0.375q0.6875 0.375 0.90625 1.078125l0.03125 0l0.890625 -4.40625l1.34375 0zm-8.0625 8.21875q0 1.078125 0.53125 1.640625q0.546875 0.546875 1.578125 0.546875q1.390625 0 2.3125 -1.296875q0.9375 -1.296875 0.9375 -2.8125q0 -0.953125 -0.5625 -1.546875q-0.5625 -0.59375 -1.53125 -0.59375q-1.421875 0 -2.34375 1.234375q-0.921875 1.21875 -0.921875 2.828125zm12.28125 -5.265625q1.5 0 2.25 0.53125q0.765625 0.515625 0.765625 1.578125q0 0.25 -0.046875 0.5625q-0.046875 0.3125 -0.109375 0.546875l-0.734375 3.125q-0.109375 0.484375 -0.109375 0.71875q0 0.21875 0.078125 0.359375q0.09375 0.140625 0.328125 0.140625q0.109375 0 0.203125 -0.03125l0.21875 -0.078125l-0.203125 1.015625q-0.15625 0.078125 -0.40625 0.140625q-0.25 0.0625 -0.4375 0.0625q-0.484375 0 -0.78125 -0.265625q-0.28125 -0.265625 -0.28125 -0.78125q0 -0.078125 0.015625 -0.125l-0.046875 -0.046875q-0.5 0.65625 -1.171875 0.9375q-0.671875 0.28125 -1.59375 0.28125q-1.171875 0 -1.859375 -0.59375q-0.671875 -0.609375 -0.671875 -1.75q0 -1.203125 0.828125 -1.875q0.828125 -0.6875 3.765625 -0.890625q0.875 -0.0625 1.265625 -0.3125q0.390625 -0.25 0.390625 -0.953125q0 -0.546875 -0.453125 -0.8125q-0.453125 -0.28125 -1.203125 -0.28125q-0.890625 0 -1.5 0.390625q-0.609375 0.375 -0.71875 1.09375l-1.359375 0q0.171875 -1.28125 1.140625 -1.984375q0.984375 -0.703125 2.4375 -0.703125zm1.265625 4.234375q-0.484375 0.328125 -1.625 0.4375q-1.6875 0.140625 -2.28125 0.515625q-0.59375 0.375 -0.59375 1.109375q0 0.546875 0.421875 0.859375q0.4375 0.296875 1.078125 0.296875q0.875 0 1.453125 -0.3125q0.59375 -0.328125 0.921875 -0.859375q0.34375 -0.53125 0.65625 -2.046875l-0.03125 0zm6.6484375 -6.484375l-0.5 2.4375l1.640625 0l-0.25 1.203125l-1.65625 0l-1.0 4.828125q-0.0625 0.28125 -0.0625 0.578125q0 0.296875 0.21875 0.4375q0.21875 0.125 0.59375 0.125q0.15625 0 0.34375 -0.03125q0.1875 -0.03125 0.4375 -0.109375l-0.234375 1.234375l0 0.015625q-0.265625 0.046875 -0.5 0.0625q-0.234375 0.03125 -0.46875 0.03125q-0.96875 0 -1.421875 -0.34375q-0.4375 -0.359375 -0.4375 -1.0q0 -0.140625 0.015625 -0.34375q0.03125 -0.203125 0.078125 -0.390625l1.078125 -5.09375l-1.390625 0l0.25 -1.203125l1.40625 0l0.5 -2.4375l1.359375 0zm5.4296875 2.25q1.5 0 2.25 0.53125q0.765625 0.515625 0.765625 1.578125q0 0.25 -0.046875 0.5625q-0.046875 0.3125 -0.109375 0.546875l-0.734375 3.125q-0.109375 0.484375 -0.109375 0.71875q0 0.21875 0.078125 0.359375q0.09375 0.140625 0.328125 0.140625q0.109375 0 0.203125 -0.03125l0.21875 -0.078125l-0.203125 1.015625q-0.15625 0.078125 -0.40625 0.140625q-0.25 0.0625 -0.4375 0.0625q-0.484375 0 -0.78125 -0.265625q-0.28125 -0.265625 -0.28125 -0.78125q0 -0.078125 0.015625 -0.125l-0.046875 -0.046875q-0.5 0.65625 -1.171875 0.9375q-0.671875 0.28125 -1.59375 0.28125q-1.171875 0 -1.859375 -0.59375q-0.671875 -0.609375 -0.671875 -1.75q0 -1.203125 0.828125 -1.875q0.828125 -0.6875 3.765625 -0.890625q0.875 -0.0625 1.265625 -0.3125q0.390625 -0.25 0.390625 -0.953125q0 -0.546875 -0.453125 -0.8125q-0.453125 -0.28125 -1.203125 -0.28125q-0.890625 0 -1.5 0.390625q-0.609375 0.375 -0.71875 1.09375l-1.359375 0q0.171875 -1.28125 1.140625 -1.984375q0.984375 -0.703125 2.4375 -0.703125zm1.265625 4.234375q-0.484375 0.328125 -1.625 0.4375q-1.6875 0.140625 -2.28125 0.515625q-0.59375 0.375 -0.59375 1.109375q0 0.546875 0.421875 0.859375q0.4375 0.296875 1.078125 0.296875q0.875 0 1.453125 -0.3125q0.59375 -0.328125 0.921875 -0.859375q0.34375 -0.53125 0.65625 -2.046875l-0.03125 0z" fill-rule="nonzero"/><path fill="#000000" fill-opacity="0.0" d="m147.78477 99.8832l71.27559 0l0 44.125984l-71.27559 0z" fill-rule="evenodd"/><path fill="#ffffff" d="m166.0632 117.83745q0.890625 0 1.390625 0.390625q0.515625 0.375 0.6875 1.09375q0.453125 -0.65625 1.21875 -1.0625q0.765625 -0.421875 1.609375 -0.421875q1.0625 0 1.671875 0.5q0.625 0.484375 0.625 1.359375q0 0.328125 -0.0625 0.703125q-0.046875 0.359375 -0.171875 0.9375l-1.046875 4.96875l-1.359375 0l1.125 -5.109375q0.125 -0.578125 0.140625 -0.796875q0.015625 -0.21875 0.015625 -0.234375q0 -0.484375 -0.375 -0.796875q-0.359375 -0.328125 -0.890625 -0.328125q-0.6875 0 -1.390625 0.5q-0.6875 0.5 -0.96875 1.03125q-0.28125 0.53125 -0.453125 1.375l-0.9375 4.359375l-1.359375 0l0.953125 -4.546875q0.15625 -0.765625 0.21875 -1.125q0.078125 -0.375 0.078125 -0.515625q0 -0.515625 -0.3125 -0.796875q-0.296875 -0.28125 -0.84375 -0.28125q-0.734375 0 -1.4375 0.53125q-0.6875 0.53125 -0.96875 0.96875q-0.28125 0.421875 -0.5 1.359375l-0.9375 4.40625l-1.359375 0l1.765625 -8.28125l1.265625 0l-0.3125 1.234375l0.03125 0.03125q0.578125 -0.703125 1.3125 -1.078125q0.75 -0.375 1.578125 -0.375zm12.5078125 0q1.5 0 2.25 0.53125q0.765625 0.515625 0.765625 1.578125q0 0.25 -0.046875 0.5625q-0.046875 0.3125 -0.109375 0.546875l-0.734375 3.125q-0.109375 0.484375 -0.109375 0.71875q0 0.21875 0.078125 0.359375q0.09375 0.140625 0.328125 0.140625q0.109375 0 0.203125 -0.03125l0.21875 -0.078125l-0.203125 1.015625q-0.15625 0.078125 -0.40625 0.140625q-0.25 0.0625 -0.4375 0.0625q-0.484375 0 -0.78125 -0.265625q-0.28125 -0.265625 -0.28125 -0.78125q0 -0.078125 0.015625 -0.125l-0.046875 -0.046875q-0.5 0.65625 -1.171875 0.9375q-0.671875 0.28125 -1.59375 0.28125q-1.171875 0 -1.859375 -0.59375q-0.671875 -0.609375 -0.671875 -1.75q0 -1.203125 0.828125 -1.875q0.828125 -0.6875 3.765625 -0.890625q0.875 -0.0625 1.265625 -0.3125q0.390625 -0.25 0.390625 -0.953125q0 -0.546875 -0.453125 -0.8125q-0.453125 -0.28125 -1.203125 -0.28125q-0.890625 0 -1.5 0.390625q-0.609375 0.375 -0.71875 1.09375l-1.359375 0q0.171875 -1.28125 1.140625 -1.984375q0.984375 -0.703125 2.4375 -0.703125zm1.265625 4.234375q-0.484375 0.328125 -1.625 0.4375q-1.6875 0.140625 -2.28125 0.515625q-0.59375 0.375 -0.59375 1.109375q0 0.546875 0.421875 0.859375q0.4375 0.296875 1.078125 0.296875q0.875 0 1.453125 -0.3125q0.59375 -0.328125 0.921875 -0.859375q0.34375 -0.53125 0.65625 -2.046875l-0.03125 0zm6.6484375 -6.484375l-0.5 2.4375l1.640625 0l-0.25 1.203125l-1.65625 0l-1.0 4.828125q-0.0625 0.28125 -0.0625 0.578125q0 0.296875 0.21875 0.4375q0.21875 0.125 0.59375 0.125q0.15625 0 0.34375 -0.03125q0.1875 -0.03125 0.4375 -0.109375l-0.234375 1.234375l0 0.015625q-0.265625 0.046875 -0.5 0.0625q-0.234375 0.03125 -0.46875 0.03125q-0.96875 0 -1.421875 -0.34375q-0.4375 -0.359375 -0.4375 -1.0q0 -0.140625 0.015625 -0.34375q0.03125 -0.203125 0.078125 -0.390625l1.078125 -5.09375l-1.390625 0l0.25 -1.203125l1.40625 0l0.5 -2.4375l1.359375 0zm5.0390625 0l-0.5 2.4375l1.640625 0l-0.25 1.203125l-1.65625 0l-1.0 4.828125q-0.0625 0.28125 -0.0625 0.578125q0 0.296875 0.21875 0.4375q0.21875 0.125 0.59375 0.125q0.15625 0 0.34375 -0.03125q0.1875 -0.03125 0.4375 -0.109375l-0.234375 1.234375l0 0.015625q-0.265625 0.046875 -0.5 0.0625q-0.234375 0.03125 -0.46875 0.03125q-0.96875 0 -1.421875 -0.34375q-0.4375 -0.359375 -0.4375 -1.0q0 -0.140625 0.015625 -0.34375q0.03125 -0.203125 0.078125 -0.390625l1.078125 -5.09375l-1.390625 0l0.25 -1.203125l1.40625 0l0.5 -2.4375l1.359375 0zm5.3203125 2.25q1.75 0 2.625 0.921875q0.875 0.921875 0.875 2.734375q0 0.265625 -0.046875 0.609375q-0.046875 0.328125 -0.078125 0.46875l-6.21875 0q-0.03125 0.203125 -0.046875 0.390625q0 0.171875 0 0.328125q0 0.90625 0.625 1.453125q0.625 0.546875 1.515625 0.546875q0.859375 0 1.46875 -0.390625q0.609375 -0.40625 0.90625 -1.1875l1.359375 0q-0.328125 1.359375 -1.34375 2.078125q-1.015625 0.71875 -2.390625 0.71875q-1.6875 0 -2.609375 -0.921875q-0.90625 -0.9375 -0.90625 -2.4375q0 -2.25 1.234375 -3.78125q1.25 -1.53125 3.03125 -1.53125zm-2.65625 3.53125l4.796875 0q0.015625 -0.0625 0.015625 -0.109375q0 -0.046875 0 -0.109375q0 -0.96875 -0.515625 -1.53125q-0.515625 -0.578125 -1.453125 -0.578125q-0.984375 0 -1.734375 0.578125q-0.734375 0.5625 -1.109375 1.75zm12.625 -3.546875q0.203125 0 0.25 0.015625l-0.3125 1.453125q-0.046875 -0.015625 -0.328125 -0.015625q-0.953125 0 -1.453125 0.296875q-0.484375 0.28125 -1.015625 0.875q-0.515625 0.578125 -0.875 2.1875l-0.78125 3.671875l-1.359375 0l1.734375 -8.28125l1.28125 0l-0.40625 1.78125l0.03125 0q0.328125 -0.59375 0.734375 -1.0q0.40625 -0.40625 0.875 -0.640625q0.296875 -0.15625 0.59375 -0.21875q0.3125 -0.078125 0.65625 -0.109375q0.125 -0.015625 0.1875 -0.015625q0.078125 0 0.1875 0z" fill-rule="nonzero"/><path fill="#000000" fill-opacity="0.0" d="m507.7848 99.8832l71.27557 0l0 44.125984l-71.27557 0z" fill-rule="evenodd"/><path fill="#ffffff" d="m526.0632 117.83745q0.890625 0 1.390625 0.390625q0.515625 0.375 0.6875 1.09375q0.453125 -0.65625 1.21875 -1.0625q0.765625 -0.421875 1.609375 -0.421875q1.0625 0 1.671875 0.5q0.625 0.484375 0.625 1.359375q0 0.328125 -0.0625 0.703125q-0.046875 0.359375 -0.171875 0.9375l-1.046875 4.96875l-1.359375 0l1.125 -5.109375q0.125 -0.578125 0.140625 -0.796875q0.015625 -0.21875 0.015625 -0.234375q0 -0.484375 -0.375 -0.796875q-0.359375 -0.328125 -0.890625 -0.328125q-0.6875 0 -1.390625 0.5q-0.6875 0.5 -0.96875 1.03125q-0.28125 0.53125 -0.453125 1.375l-0.9375 4.359375l-1.359375 0l0.953125 -4.546875q0.15625 -0.765625 0.21875 -1.125q0.078125 -0.375 0.078125 -0.515625q0 -0.515625 -0.3125 -0.796875q-0.296875 -0.28125 -0.84375 -0.28125q-0.734375 0 -1.4375 0.53125q-0.6875 0.53125 -0.96875 0.96875q-0.28125 0.421875 -0.5 1.359375l-0.9375 4.40625l-1.359375 0l1.765625 -8.28125l1.265625 0l-0.3125 1.234375l0.03125 0.03125q0.578125 -0.703125 1.3125 -1.078125q0.75 -0.375 1.578125 -0.375zm12.5078125 0q1.5 0 2.25 0.53125q0.765625 0.515625 0.765625 1.578125q0 0.25 -0.046875 0.5625q-0.046875 0.3125 -0.109375 0.546875l-0.734375 3.125q-0.109375 0.484375 -0.109375 0.71875q0 0.21875 0.078125 0.359375q0.09375 0.140625 0.328125 0.140625q0.109375 0 0.203125 -0.03125l0.21875 -0.078125l-0.203125 1.015625q-0.15625 0.078125 -0.40625 0.140625q-0.25 0.0625 -0.4375 0.0625q-0.484375 0 -0.78125 -0.265625q-0.28125 -0.265625 -0.28125 -0.78125q0 -0.078125 0.015625 -0.125l-0.046875 -0.046875q-0.5 0.65625 -1.171875 0.9375q-0.671875 0.28125 -1.59375 0.28125q-1.171875 0 -1.859375 -0.59375q-0.671875 -0.609375 -0.671875 -1.75q0 -1.203125 0.828125 -1.875q0.828125 -0.6875 3.765625 -0.890625q0.875 -0.0625 1.265625 -0.3125q0.390625 -0.25 0.390625 -0.953125q0 -0.546875 -0.453125 -0.8125q-0.453125 -0.28125 -1.203125 -0.28125q-0.890625 0 -1.5 0.390625q-0.609375 0.375 -0.71875 1.09375l-1.359375 0q0.171875 -1.28125 1.140625 -1.984375q0.984375 -0.703125 2.4375 -0.703125zm1.265625 4.234375q-0.484375 0.328125 -1.625 0.4375q-1.6875 0.140625 -2.28125 0.515625q-0.59375 0.375 -0.59375 1.109375q0 0.546875 0.421875 0.859375q0.4375 0.296875 1.078125 0.296875q0.875 0 1.453125 -0.3125q0.59375 -0.328125 0.921875 -0.859375q0.34375 -0.53125 0.65625 -2.046875l-0.03125 0zm6.6484375 -6.484375l-0.5 2.4375l1.640625 0l-0.25 1.203125l-1.65625 0l-1.0 4.828125q-0.0625 0.28125 -0.0625 0.578125q0 0.296875 0.21875 0.4375q0.21875 0.125 0.59375 0.125q0.15625 0 0.34375 -0.03125q0.1875 -0.03125 0.4375 -0.109375l-0.234375 1.234375l0 0.015625q-0.265625 0.046875 -0.5 0.0625q-0.234375 0.03125 -0.46875 0.03125q-0.96875 0 -1.421875 -0.34375q-0.4375 -0.359375 -0.4375 -1.0q0 -0.140625 0.015625 -0.34375q0.03125 -0.203125 0.078125 -0.390625l1.078125 -5.09375l-1.390625 0l0.25 -1.203125l1.40625 0l0.5 -2.4375l1.359375 0zm5.0390625 0l-0.5 2.4375l1.640625 0l-0.25 1.203125l-1.65625 0l-1.0 4.828125q-0.0625 0.28125 -0.0625 0.578125q0 0.296875 0.21875 0.4375q0.21875 0.125 0.59375 0.125q0.15625 0 0.34375 -0.03125q0.1875 -0.03125 0.4375 -0.109375l-0.234375 1.234375l0 0.015625q-0.265625 0.046875 -0.5 0.0625q-0.234375 0.03125 -0.46875 0.03125q-0.96875 0 -1.421875 -0.34375q-0.4375 -0.359375 -0.4375 -1.0q0 -0.140625 0.015625 -0.34375q0.03125 -0.203125 0.078125 -0.390625l1.078125 -5.09375l-1.390625 0l0.25 -1.203125l1.40625 0l0.5 -2.4375l1.359375 0zm5.3203125 2.25q1.75 0 2.625 0.921875q0.875 0.921875 0.875 2.734375q0 0.265625 -0.046875 0.609375q-0.046875 0.328125 -0.078125 0.46875l-6.21875 0q-0.03125 0.203125 -0.046875 0.390625q0 0.171875 0 0.328125q0 0.90625 0.625 1.453125q0.625 0.546875 1.515625 0.546875q0.859375 0 1.46875 -0.390625q0.609375 -0.40625 0.90625 -1.1875l1.359375 0q-0.328125 1.359375 -1.34375 2.078125q-1.015625 0.71875 -2.390625 0.71875q-1.6875 0 -2.609375 -0.921875q-0.90625 -0.9375 -0.90625 -2.4375q0 -2.25 1.234375 -3.78125q1.25 -1.53125 3.03125 -1.53125zm-2.65625 3.53125l4.796875 0q0.015625 -0.0625 0.015625 -0.109375q0 -0.046875 0 -0.109375q0 -0.96875 -0.515625 -1.53125q-0.515625 -0.578125 -1.453125 -0.578125q-0.984375 0 -1.734375 0.578125q-0.734375 0.5625 -1.109375 1.75zm12.625 -3.546875q0.203125 0 0.25 0.015625l-0.3125 1.453125q-0.046875 -0.015625 -0.328125 -0.015625q-0.953125 0 -1.453125 0.296875q-0.484375 0.28125 -1.015625 0.875q-0.515625 0.578125 -0.875 2.1875l-0.78125 3.671875l-1.359375 0l1.734375 -8.28125l1.28125 0l-0.40625 1.78125l0.03125 0q0.328125 -0.59375 0.734375 -1.0q0.40625 -0.40625 0.875 -0.640625q0.296875 -0.15625 0.59375 -0.21875q0.3125 -0.078125 0.65625 -0.109375q0.125 -0.015625 0.1875 -0.015625q0.078125 0 0.1875 0z" fill-rule="nonzero"/><path fill="#000000" d="m93.42257 291.65878l0 0c0 -49.705612 40.29438 -89.999985 90.00001 -89.999985l0 0c23.869476 0 46.761337 9.482117 63.639603 26.360382c16.87828 16.87828 26.360397 39.770126 26.360397 63.639603l0 0c0 49.705627 -40.294373 90.0 -90.0 90.0l0 0c-49.705627 0 -90.00001 -40.294373 -90.00001 -90.0z" fill-rule="evenodd"/><path stroke="#ffffff" stroke-width="3.0" stroke-linejoin="round" stroke-linecap="butt" d="m93.42257 291.65878l0 0c0 -49.705612 40.29438 -89.999985 90.00001 -89.999985l0 0c23.869476 0 46.761337 9.482117 63.639603 26.360382c16.87828 16.87828 26.360397 39.770126 26.360397 63.639603l0 0c0 49.705627 -40.294373 90.0 -90.0 90.0l0 0c-49.705627 0 -90.00001 -40.294373 -90.00001 -90.0z" fill-rule="evenodd"/><path fill="#ffffff" d="m159.65305 281.05817l3.828125 12.046875l0.046875 0l3.859375 -12.046875l3.890625 0l-5.6875 17.140625l-4.25 0l-5.5625 -17.140625l3.875 0zm16.535156 0l0 2.8125l-3.421875 0l0 -2.8125l3.421875 0zm0 4.734375l0 12.40625l-3.421875 0l0 -12.40625l3.421875 0zm8.40625 -0.328125q2.75 0 4.390625 1.890625q1.65625 1.890625 1.65625 4.828125l-0.015625 0.640625l-8.953125 0q0.0625 1.59375 0.828125 2.375q0.765625 0.765625 2.203125 0.765625q0.921875 0 1.703125 -0.46875q0.796875 -0.46875 1.0 -1.140625l3.0 0q-0.6875 2.109375 -2.140625 3.15625q-1.4375 1.03125 -3.671875 1.03125q-2.875 0 -4.609375 -1.8125q-1.734375 -1.828125 -1.734375 -4.71875q0 -2.78125 1.78125 -4.65625q1.78125 -1.890625 4.5625 -1.890625zm-2.921875 5.203125l5.53125 0q-0.234375 -1.375 -0.875 -2.0q-0.640625 -0.640625 -1.84375 -0.640625q-1.25 0 -1.984375 0.703125q-0.71875 0.703125 -0.828125 1.9375zm13.40625 -4.875l2.296875 8.421875l0.046875 0l2.0625 -8.421875l3.3125 0l2.109375 8.390625l0.046875 0l2.28125 -8.390625l3.5 0l-3.921875 12.40625l-3.484375 0l-2.203125 -8.328125l-0.0625 0l-2.109375 8.328125l-3.53125 0l-3.9375 -12.40625l3.59375 0z" fill-rule="nonzero"/><path fill="#000000" d="m453.42258 291.65878l0 0c0 -49.705612 40.294373 -89.999985 89.99997 -89.999985l0 0c23.869507 0 46.761353 9.482117 63.63965 26.360382c16.878235 16.87828 26.360352 39.770126 26.360352 63.639603l0 0c0 49.705627 -40.294373 90.0 -90.0 90.0l0 0c-49.705597 0 -89.99997 -40.294373 -89.99997 -90.0z" fill-rule="evenodd"/><path stroke="#ffffff" stroke-width="3.0" stroke-linejoin="round" stroke-linecap="butt" d="m453.42258 291.65878l0 0c0 -49.705612 40.294373 -89.999985 89.99997 -89.999985l0 0c23.869507 0 46.761353 9.482117 63.63965 26.360382c16.878235 16.87828 26.360352 39.770126 26.360352 63.639603l0 0c0 49.705627 -40.294373 90.0 -90.0 90.0l0 0c-49.705597 0 -89.99997 -40.294373 -89.99997 -90.0z" fill-rule="evenodd"/><path fill="#ffffff" d="m515.79755 281.05817l0 17.140625l-3.765625 0l0 -17.140625l3.765625 0zm10.078125 4.40625q2.375 0 3.4375 1.203125q1.078125 1.1875 1.078125 3.765625l0 7.765625l-3.40625 0l0 -7.109375q0 -1.453125 -0.5 -2.203125q-0.5 -0.75 -1.6875 -0.75q-1.40625 0 -2.03125 0.84375q-0.609375 0.84375 -0.609375 2.59375l0 6.625l-3.40625 0l0 -12.40625l3.234375 0l0 1.734375l0.078125 0q0.625 -1.0 1.609375 -1.53125q1.0 -0.53125 2.203125 -0.53125zm11.4140625 -3.390625l0 3.71875l2.5 0l0 2.28125l-2.5 0l0 6.21875q0 0.765625 0.28125 1.0625q0.296875 0.296875 1.171875 0.296875q0.28125 0 0.546875 -0.015625q0.28125 -0.03125 0.5 -0.078125l0 2.671875q-0.421875 0.0625 -0.953125 0.078125q-0.515625 0.03125 -1.015625 0.03125q-2.21875 0 -3.078125 -0.75q-0.859375 -0.765625 -0.859375 -2.125l0 -7.390625l-2.0625 0l0 -2.28125l2.0625 0l0 -3.71875l3.40625 0zm9.753906 3.390625q2.75 0 4.390625 1.890625q1.65625 1.890625 1.65625 4.828125l-0.015625 0.640625l-8.953125 0q0.0625 1.59375 0.828125 2.375q0.765625 0.765625 2.203125 0.765625q0.921875 0 1.703125 -0.46875q0.796875 -0.46875 1.0 -1.140625l3.0 0q-0.6875 2.109375 -2.140625 3.15625q-1.4375 1.03125 -3.671875 1.03125q-2.875 0 -4.609375 -1.8125q-1.734375 -1.828125 -1.734375 -4.71875q0 -2.78125 1.78125 -4.65625q1.78125 -1.890625 4.5625 -1.890625zm-2.921875 5.203125l5.53125 0q-0.234375 -1.375 -0.875 -2.0q-0.640625 -0.640625 -1.84375 -0.640625q-1.25 0 -1.984375 0.703125q-0.71875 0.703125 -0.828125 1.9375zm18.09375 -5.203125q2.375 0 3.4375 1.203125q1.078125 1.1875 1.078125 3.765625l0 7.765625l-3.40625 0l0 -7.109375q0 -1.453125 -0.5 -2.203125q-0.5 -0.75 -1.6875 -0.75q-1.40625 0 -2.03125 0.84375q-0.609375 0.84375 -0.609375 2.59375l0 6.625l-3.40625 0l0 -12.40625l3.234375 0l0 1.734375l0.078125 0q0.625 -1.0 1.609375 -1.53125q1.0 -0.53125 2.203125 -0.53125zm11.4140625 -3.390625l0 3.71875l2.5 0l0 2.28125l-2.5 0l0 6.21875q0 0.765625 0.28125 1.0625q0.296875 0.296875 1.171875 0.296875q0.28125 0 0.546875 -0.015625q0.28125 -0.03125 0.5 -0.078125l0 2.671875q-0.421875 0.0625 -0.953125 0.078125q-0.515625 0.03125 -1.015625 0.03125q-2.21875 0 -3.078125 -0.75q-0.859375 -0.765625 -0.859375 -2.125l0 -7.390625l-2.0625 0l0 -2.28125l2.0625 0l0 -3.71875l3.40625 0z" fill-rule="nonzero"/></g></svg>