<svg version="1.1" viewBox="0.0 0.0 726.8503937007874 583.3175853018373" fill="none" stroke="none" stroke-linecap="square" stroke-miterlimit="10" xmlns:xlink="http://www.w3.org/1999/xlink" xmlns="http://www.w3.org/2000/svg"><clipPath id="p.0"><path d="m0 0l726.8504 0l0 583.31757l-726.8504 0l0 -583.31757z" clip-rule="nonzero"/></clipPath><g clip-path="url(#p.0)"><path fill="#000000" fill-opacity="0.0" d="m0 0l726.8504 0l0 583.31757l-726.8504 0z" fill-rule="evenodd"/><path fill="#000000" d="m0.007874016 0.005249344l726.83466 0l0 583.30707l-726.83466 0z" fill-rule="evenodd"/><path fill="#000000" d="m145.85695 446.94226l0 0c0 -49.705627 40.294373 -90.0 90.0 -90.0l0 0c23.869492 0 46.761337 9.482117 63.639603 26.360382c16.878296 16.878265 26.360413 39.77014 26.360413 63.639618l0 0c0 49.705627 -40.294373 90.0 -90.000015 90.0l0 0c-49.705627 0 -90.0 -40.294373 -90.0 -90.0z" fill-rule="evenodd"/><path stroke="#ffffff" stroke-width="3.0" stroke-linejoin="round" stroke-linecap="butt" d="m145.85695 446.94226l0 0c0 -49.705627 40.294373 -90.0 90.0 -90.0l0 0c23.869492 0 46.761337 9.482117 63.639603 26.360382c16.878296 16.878265 26.360413 39.77014 26.360413 63.639618l0 0c0 49.705627 -40.294373 90.0 -90.000015 90.0l0 0c-49.705627 0 -90.0 -40.294373 -90.0 -90.0z" fill-rule="evenodd"/><path fill="#ffffff" d="m205.355 436.34164l0 3.171875l-9.046875 0l0 3.671875l8.296875 0l0 2.921875l-8.296875 0l0 4.203125l9.234375 0l0 3.171875l-13.0 0l0 -17.140625l12.8125 0zm7.2695312 0q0.359375 0 0.9375 0.046875q0.59375 0.03125 0.875 0.046875l0 2.546875q-0.34375 -0.03125 -0.65625 -0.046875q-0.3125 -0.015625 -0.578125 -0.015625q-0.71875 0 -1.015625 0.328125q-0.296875 0.3125 -0.296875 0.96875l0 0.859375l3.859375 0l0 -0.859375q0 -2.0 1.125 -2.9375q1.140625 -0.9375 3.03125 -0.9375q0.359375 0 1.0 0.046875q0.65625 0.046875 0.796875 0.046875l0 2.546875q-0.328125 -0.03125 -0.640625 -0.046875q-0.296875 -0.015625 -0.578125 -0.015625q-0.75 0 -1.046875 0.34375q-0.28125 0.34375 -0.28125 0.953125l0 0.859375l2.359375 0l0 2.28125l-2.359375 0l0 10.125l-3.40625 0l0 -10.125l-3.859375 0l0 10.125l-3.40625 0l0 -10.125l-2.046875 0l0 -2.28125l2.046875 0l0 -0.859375q0 -1.9375 1.109375 -2.90625q1.125 -0.96875 3.03125 -0.96875zm16.113281 4.40625q2.75 0 4.390625 1.890625q1.65625 1.890625 1.65625 4.828125l-0.015625 0.640625l-8.953125 0q0.0625 1.59375 0.828125 2.375q0.765625 0.765625 2.203125 0.765625q0.921875 0 1.703125 -0.46875q0.796875 -0.46875 1.0 -1.140625l3.0 0q-0.6875 2.109375 -2.140625 3.15625q-1.4375 1.03125 -3.671875 1.03125q-2.875 0 -4.609375 -1.8125q-1.734375 -1.828125 -1.734375 -4.71875q0 -2.78125 1.78125 -4.65625q1.78125 -1.890625 4.5625 -1.890625zm-2.921875 5.203125l5.53125 0q-0.234375 -1.375 -0.875 -2.0q-0.640625 -0.640625 -1.84375 -0.640625q-1.25 0 -1.984375 0.703125q-0.71875 0.703125 -0.828125 1.9375zm16.921875 -5.203125q2.390625 0 4.03125 1.25q1.65625 1.234375 1.796875 3.4375l-3.34375 0q-0.140625 -1.0625 -0.78125 -1.59375q-0.625 -0.53125 -1.734375 -0.53125q-1.375 0 -2.140625 1.125q-0.75 1.125 -0.75 2.90625q0 1.78125 0.75 2.84375q0.75 1.0625 2.078125 1.0625q1.125 0 1.828125 -0.640625q0.703125 -0.65625 0.890625 -1.890625l3.28125 0q-0.34375 2.46875 -1.9375 3.796875q-1.578125 1.3125 -4.046875 1.3125q-2.765625 0 -4.515625 -1.78125q-1.734375 -1.78125 -1.734375 -4.59375q0 -3.0 1.703125 -4.84375q1.71875 -1.859375 4.625 -1.859375zm12.140625 -3.390625l0 3.71875l2.5000153 0l0 2.28125l-2.5000153 0l0 6.21875q0 0.765625 0.28125 1.0625q0.296875 0.296875 1.1718903 0.296875q0.28125 0 0.546875 -0.015625q0.28125 -0.03125 0.5 -0.078125l0 2.671875q-0.421875 0.0625 -0.953125 0.078125q-0.51564026 0.03125 -1.0156403 0.03125q-2.21875 0 -3.078125 -0.75q-0.859375 -0.765625 -0.859375 -2.125l0 -7.390625l-2.0625 0l0 -2.28125l2.0625 0l0 -3.71875l3.40625 0zm19.710953 -1.015625l6.40625 17.125l-3.921875 0l-1.28125 -3.8125l-6.40625 0l-1.359375 3.828125l-3.8125 0l6.515625 -17.140625l3.859375 0zm-2.0 4.21875l-2.21875 6.296875l4.4375 0l-2.15625 -6.296875l-0.0625 0z" fill-rule="nonzero"/><path fill="#000000" d="m145.85695 136.37534l0 0c0 -49.705635 40.294373 -90.00001 90.0 -90.00001l0 0c23.869492 0 46.761337 9.482117 63.639603 26.36039c16.878296 16.878273 26.360413 39.770126 26.360413 63.639618l0 0c0 49.705627 -40.294373 90.0 -90.000015 90.0l0 0c-49.705627 0 -90.0 -40.294373 -90.0 -90.0z" fill-rule="evenodd"/><path stroke="#ffffff" stroke-width="3.0" stroke-linejoin="round" stroke-linecap="butt" d="m145.85695 136.37534l0 0c0 -49.705635 40.294373 -90.00001 90.0 -90.00001l0 0c23.869492 0 46.761337 9.482117 63.639603 26.36039c16.878296 16.878273 26.360413 39.770126 26.360413 63.639618l0 0c0 49.705627 -40.294373 90.0 -90.000015 90.0l0 0c-49.705627 0 -90.0 -40.294373 -90.0 -90.0z" fill-rule="evenodd"/><path fill="#ffffff" d="m206.67336 125.774704l0 3.171875l-9.046875 0l0 3.671875l8.296875 0l0 2.921875l-8.296875 0l0 4.203125l9.234375 0l0 3.171875l-13.0 0l0 -17.140625l12.8125 0zm4.4765625 4.734375l2.625 8.46875l0.046875 0l2.625 -8.46875l3.375 0l-4.203125 12.40625l-3.78125 0l-4.25 -12.40625l3.5625 0zm15.824219 -0.328125q2.75 0 4.390625 1.890625q1.65625 1.890625 1.65625 4.828125l-0.015625 0.640625l-8.953125 0q0.0625 1.59375 0.828125 2.375q0.765625 0.765625 2.203125 0.765625q0.921875 0 1.703125 -0.46875q0.796875 -0.46875 1.0 -1.140625l3.0 0q-0.6875 2.109375 -2.140625 3.15625q-1.4375 1.03125 -3.671875 1.03125q-2.875 0 -4.609375 -1.8125q-1.734375 -1.828125 -1.734375 -4.71875q0 -2.78125 1.78125 -4.65625q1.78125 -1.890625 4.5625 -1.890625zm-2.921875 5.203125l5.53125 0q-0.234375 -1.375 -0.875 -2.0q-0.640625 -0.640625 -1.84375 -0.640625q-1.25 0 -1.984375 0.703125q-0.71875 0.703125 -0.828125 1.9375zm18.09375 -5.203125q2.375 0 3.4375 1.203125q1.078125 1.1875 1.078125 3.765625l0 7.765625l-3.40625 0l0 -7.109375q0 -1.453125 -0.5 -2.203125q-0.5 -0.75 -1.6875 -0.75q-1.40625 0 -2.03125 0.84375q-0.609375 0.84375 -0.609375 2.59375l0 6.625l-3.40625 0l0 -12.40625l3.234375 0l0 1.734375l0.078125 0q0.625 -1.0 1.609375 -1.53125q1.0 -0.53125 2.203125 -0.53125zm11.4140625 -3.390625l0 3.71875l2.5000153 0l0 2.28125l-2.5000153 0l0 6.21875q0 0.765625 0.28125 1.0625q0.296875 0.296875 1.171875 0.296875q0.28125 0 0.546875 -0.015625q0.28125 -0.03125 0.50001526 -0.078125l0 2.671875q-0.42189026 0.0625 -0.95314026 0.078125q-0.515625 0.03125 -1.015625 0.03125q-2.21875 0 -3.078125 -0.75q-0.859375 -0.765625 -0.859375 -2.125l0 -7.390625l-2.0625 0l0 -2.28125l2.0625 0l0 -3.71875l3.40625 0zm19.710953 -1.015625l6.40625 17.125l-3.921875 0l-1.28125 -3.8125l-6.40625 0l-1.359375 3.828125l-3.8125 0l6.515625 -17.140625l3.859375 0zm-2.0 4.21875l-2.21875 6.296875l4.4375 0l-2.15625 -6.296875l-0.0625 0z" fill-rule="nonzero"/><path fill="#000000" fill-opacity="0.0" d="m235.85695 226.37534c0 32.641754 0.01574707 48.960663 0.0315094 65.28351c0.01574707 16.322815 0.03149414 32.649567 0.03149414 65.299164" fill-rule="evenodd"/><path stroke="#f3f3f3" stroke-width="3.0" stroke-linejoin="round" stroke-linecap="butt" d="m235.85695 226.37534c0 32.641754 0.01574707 48.960663 0.0315094 65.28351c0.007873535 8.161407 0.01574707 16.323822 0.021652222 26.527039c0.0029449463 5.1016235 0.0054016113 10.71347 0.0071258545 17.090485l4.5776367E-4 3.6816406" fill-rule="evenodd"/><path fill="#f3f3f3" stroke="#f3f3f3" stroke-width="3.0" stroke-linecap="butt" d="m230.96251 338.95862l4.956894 13.613678l4.953491 -13.614899z" fill-rule="evenodd"/><path fill="#000000" d="m400.9908 136.37534l0 0c0 -49.705635 40.294373 -90.00001 90.0 -90.00001l0 0c23.869476 0 46.761322 9.482117 63.639618 26.36039c16.878296 16.878273 26.360352 39.770126 26.360352 63.639618l0 0c0 49.705627 -40.294373 90.0 -89.99997 90.0l0 0c-49.705627 0 -90.0 -40.294373 -90.0 -90.0z" fill-rule="evenodd"/><path stroke="#ffffff" stroke-width="3.0" stroke-linejoin="round" stroke-linecap="butt" d="m400.9908 136.37534l0 0c0 -49.705635 40.294373 -90.00001 90.0 -90.00001l0 0c23.869476 0 46.761322 9.482117 63.639618 26.36039c16.878296 16.878273 26.360352 39.770126 26.360352 63.639618l0 0c0 49.705627 -40.294373 90.0 -89.99997 90.0l0 0c-49.705627 0 -90.0 -40.294373 -90.0 -90.0z" fill-rule="evenodd"/><path fill="#ffffff" d="m461.5787 125.774704l0 3.171875l-9.046875 0l0 3.671875l8.296875 0l0 2.921875l-8.296875 0l0 4.203125l9.234375 0l0 3.171875l-13.0 0l0 -17.140625l12.8125 0zm4.4765625 4.734375l2.625 8.46875l0.046875 0l2.625 -8.46875l3.375 0l-4.203125 12.40625l-3.78125 0l-4.25 -12.40625l3.5625 0zm15.824219 -0.328125q2.75 0 4.390625 1.890625q1.65625 1.890625 1.65625 4.828125l-0.015625 0.640625l-8.953125 0q0.0625 1.59375 0.828125 2.375q0.765625 0.765625 2.203125 0.765625q0.921875 0 1.703125 -0.46875q0.796875 -0.46875 1.0 -1.140625l3.0 0q-0.6875 2.109375 -2.140625 3.15625q-1.4375 1.03125 -3.671875 1.03125q-2.875 0 -4.609375 -1.8125q-1.734375 -1.828125 -1.734375 -4.71875q0 -2.78125 1.78125 -4.65625q1.78125 -1.890625 4.5625 -1.890625zm-2.921875 5.203125l5.53125 0q-0.234375 -1.375 -0.875 -2.0q-0.640625 -0.640625 -1.84375 -0.640625q-1.25 0 -1.984375 0.703125q-0.71875 0.703125 -0.828125 1.9375zm18.09375 -5.203125q2.375 0 3.4375 1.203125q1.078125 1.1875 1.078125 3.765625l0 7.765625l-3.40625 0l0 -7.109375q0 -1.453125 -0.5 -2.203125q-0.5 -0.75 -1.6875 -0.75q-1.40625 0 -2.03125 0.84375q-0.609375 0.84375 -0.609375 2.59375l0 6.625l-3.40625 0l0 -12.40625l3.234375 0l0 1.734375l0.078125 0q0.625 -1.0 1.609375 -1.53125q1.0 -0.53125 2.203125 -0.53125zm11.4140625 -3.390625l0 3.71875l2.5 0l0 2.28125l-2.5 0l0 6.21875q0 0.765625 0.28125 1.0625q0.296875 0.296875 1.171875 0.296875q0.28125 0 0.546875 -0.015625q0.28125 -0.03125 0.5 -0.078125l0 2.671875q-0.421875 0.0625 -0.953125 0.078125q-0.515625 0.03125 -1.015625 0.03125q-2.21875 0 -3.078125 -0.75q-0.859375 -0.765625 -0.859375 -2.125l0 -7.390625l-2.0625 0l0 -2.28125l2.0625 0l0 -3.71875l3.40625 0zm19.351532 -1.015625q2.625 0 3.984375 1.046875q1.359375 1.03125 1.359375 3.1875q0 1.328125 -0.609375 2.203125q-0.609375 0.859375 -1.703125 1.390625q1.546875 0.46875 2.34375 1.578125q0.796875 1.109375 0.796875 2.765625q0 2.359375 -1.71875 3.671875q-1.703125 1.296875 -4.234375 1.296875l-8.40625 0l0 -17.140625l8.1875 0zm-0.53125 6.9375q1.0 0 1.609375 -0.515625q0.625 -0.515625 0.625 -1.515625q0 -1.015625 -0.640625 -1.484375q-0.625 -0.484375 -1.859375 -0.484375l-3.625 0l0 4.0l3.890625 0zm0.234375 7.265625q1.265625 0 1.96875 -0.546875q0.71875 -0.546875 0.71875 -1.703125q0 -1.203125 -0.671875 -1.8125q-0.671875 -0.625 -1.953125 -0.625l-4.1875 0l0 4.6875l4.125 0z" fill-rule="nonzero"/><path fill="#000000" d="m400.9908 446.94226l0 0c0 -49.705627 40.294373 -90.0 90.0 -90.0l0 0c23.869476 0 46.761322 9.482117 63.639618 26.360382c16.878296 16.878265 26.360352 39.77014 26.360352 63.639618l0 0c0 49.705627 -40.294373 90.0 -89.99997 90.0l0 0c-49.705627 0 -90.0 -40.294373 -90.0 -90.0z" fill-rule="evenodd"/><path stroke="#ffffff" stroke-width="3.0" stroke-linejoin="round" stroke-linecap="butt" d="m400.9908 446.94226l0 0c0 -49.705627 40.294373 -90.0 90.0 -90.0l0 0c23.869476 0 46.761322 9.482117 63.639618 26.360382c16.878296 16.878265 26.360352 39.77014 26.360352 63.639618l0 0c0 49.705627 -40.294373 90.0 -89.99997 90.0l0 0c-49.705627 0 -90.0 -40.294373 -90.0 -90.0z" fill-rule="evenodd"/><path fill="#ffffff" d="m460.26035 436.34164l0 3.171875l-9.046875 0l0 3.671875l8.296875 0l0 2.921875l-8.296875 0l0 4.203125l9.234375 0l0 3.171875l-13.0 0l0 -17.140625l12.8125 0zm7.2695312 0q0.359375 0 0.9375 0.046875q0.59375 0.03125 0.875 0.046875l0 2.546875q-0.34375 -0.03125 -0.65625 -0.046875q-0.3125 -0.015625 -0.578125 -0.015625q-0.71875 0 -1.015625 0.328125q-0.296875 0.3125 -0.296875 0.96875l0 0.859375l3.859375 0l0 -0.859375q0 -2.0 1.125 -2.9375q1.140625 -0.9375 3.03125 -0.9375q0.359375 0 1.0 0.046875q0.65625 0.046875 0.796875 0.046875l0 2.546875q-0.328125 -0.03125 -0.640625 -0.046875q-0.296875 -0.015625 -0.578125 -0.015625q-0.75 0 -1.046875 0.34375q-0.28125 0.34375 -0.28125 0.953125l0 0.859375l2.359375 0l0 2.28125l-2.359375 0l0 10.125l-3.40625 0l0 -10.125l-3.859375 0l0 10.125l-3.40625 0l0 -10.125l-2.046875 0l0 -2.28125l2.046875 0l0 -0.859375q0 -1.9375 1.109375 -2.90625q1.125 -0.96875 3.03125 -0.96875zm16.113281 4.40625q2.75 0 4.390625 1.890625q1.65625 1.890625 1.65625 4.828125l-0.015625 0.640625l-8.953125 0q0.0625 1.59375 0.828125 2.375q0.765625 0.765625 2.203125 0.765625q0.921875 0 1.703125 -0.46875q0.796875 -0.46875 1.0 -1.140625l3.0 0q-0.6875 2.109375 -2.140625 3.15625q-1.4375 1.03125 -3.671875 1.03125q-2.875 0 -4.609375 -1.8125q-1.734375 -1.828125 -1.734375 -4.71875q0 -2.78125 1.78125 -4.65625q1.78125 -1.890625 4.5625 -1.890625zm-2.921875 5.203125l5.53125 0q-0.234375 -1.375 -0.875 -2.0q-0.640625 -0.640625 -1.84375 -0.640625q-1.25 0 -1.984375 0.703125q-0.71875 0.703125 -0.828125 1.9375zm16.921875 -5.203125q2.390625 0 4.03125 1.25q1.65625 1.234375 1.796875 3.4375l-3.34375 0q-0.140625 -1.0625 -0.78125 -1.59375q-0.625 -0.53125 -1.734375 -0.53125q-1.375 0 -2.140625 1.125q-0.75 1.125 -0.75 2.90625q0 1.78125 0.75 2.84375q0.75 1.0625 2.078125 1.0625q1.125 0 1.828125 -0.640625q0.703125 -0.65625 0.890625 -1.890625l3.28125 0q-0.34375 2.46875 -1.9375 3.796875q-1.578125 1.3125 -4.046875 1.3125q-2.765625 0 -4.515625 -1.78125q-1.734375 -1.78125 -1.734375 -4.59375q0 -3.0 1.703125 -4.84375q1.71875 -1.859375 4.625 -1.859375zm12.140625 -3.390625l0 3.71875l2.4999695 0l0 2.28125l-2.4999695 0l0 6.21875q0 0.765625 0.28125 1.0625q0.296875 0.296875 1.171875 0.296875q0.28125 0 0.546875 -0.015625q0.28121948 -0.03125 0.49996948 -0.078125l0 2.671875q-0.42184448 0.0625 -0.9530945 0.078125q-0.515625 0.03125 -1.015625 0.03125q-2.21875 0 -3.078125 -0.75q-0.859375 -0.765625 -0.859375 -2.125l0 -7.390625l-2.0625 0l0 -2.28125l2.0625 0l0 -3.71875l3.40625 0zm19.351532 -1.015625q2.625 0 3.984375 1.046875q1.359375 1.03125 1.359375 3.1875q0 1.328125 -0.609375 2.203125q-0.609375 0.859375 -1.703125 1.390625q1.546875 0.46875 2.34375 1.578125q0.796875 1.109375 0.796875 2.765625q0 2.359375 -1.71875 3.671875q-1.703125 1.296875 -4.234375 1.296875l-8.40625 0l0 -17.140625l8.1875 0zm-0.53125 6.9375q1.0 0 1.609375 -0.515625q0.625 -0.515625 0.625 -1.515625q0 -1.015625 -0.640625 -1.484375q-0.625 -0.484375 -1.859375 -0.484375l-3.625 0l0 4.0l3.890625 0zm0.234375 7.265625q1.265625 0 1.96875 -0.546875q0.71875 -0.546875 0.71875 -1.703125q0 -1.203125 -0.671875 -1.8125q-0.671875 -0.625 -1.953125 -0.625l-4.1875 0l0 4.6875l4.125 0z" fill-rule="nonzero"/><path fill="#000000" fill-opacity="0.0" d="m490.95932 226.36745c0 31.877853 0.01574707 47.432846 0.03149414 63.75569c0.01574707 16.322845 0.03149414 33.413483 0.03149414 66.826996" fill-rule="evenodd"/><path stroke="#f3f3f3" stroke-width="3.0" stroke-linejoin="round" stroke-linecap="butt" d="m490.95932 226.36745c0 31.877853 0.01574707 47.432846 0.03149414 63.75569c0.007873535 8.161407 0.01574707 16.51477 0.02166748 27.004517c0.0029296875 5.2448425 0.0054016113 11.023773 0.0071105957 17.579834l5.493164E-4 4.2426453" fill-rule="evenodd"/><path fill="#f3f3f3" stroke="#f3f3f3" stroke-width="3.0" stroke-linecap="butt" d="m486.0649 338.95074l4.9568787 13.613678l4.9535217 -13.614899z" fill-rule="evenodd"/><path fill="#000000" fill-opacity="0.0" d="m581.10236 446.17847c35.48163 0 70.97113 -77.25983 70.96326 -154.51968c-0.007873535 -77.25983 -35.513123 -154.51967 -71.026245 -154.51967" fill-rule="evenodd"/><path stroke="#f3f3f3" stroke-width="3.0" stroke-linejoin="round" stroke-linecap="butt" stroke-dasharray="12.0,9.0" d="m581.10236 446.17847c35.48163 0 70.97113 -77.25983 70.96326 -154.51968c-0.00390625 -38.629913 -8.882202 -77.25983 -22.19867 -106.23227c-6.658203 -14.486221 -14.425964 -26.558075 -22.74878 -35.008377c-2.0806274 -2.112564 -4.196045 -3.9987946 -6.3374634 -5.639801c-0.53533936 -0.41026306 -1.0722656 -0.80519104 -1.6107788 -1.1845093c-0.26922607 -0.18965149 -0.53881836 -0.37539673 -0.80877686 -0.5572052l-0.256958 -0.17105103" fill-rule="evenodd"/><path fill="#f3f3f3" stroke="#f3f3f3" stroke-width="3.0" stroke-linecap="butt" d="m599.6806 138.16782l-14.483398 0.36654663l11.330566 9.028961z" fill-rule="evenodd"/><path fill="#000000" fill-opacity="0.0" d="m145.76378 446.18634c-35.48163 0 -70.97113 -77.25983 -70.96326 -154.51968c0.007881165 -77.25983 35.51313 -154.51967 71.026245 -154.51967" fill-rule="evenodd"/><path stroke="#f3f3f3" stroke-width="3.0" stroke-linejoin="round" stroke-linecap="butt" stroke-dasharray="12.0,9.0" d="m145.76378 446.18634c-35.48163 0 -70.97113 -77.25983 -70.96326 -154.51968c0.0039367676 -38.629913 8.882217 -77.25983 22.198654 -106.23227c6.658226 -14.486221 14.42598 -26.558075 22.748756 -35.008377c2.0806885 -2.112564 4.196068 -3.9987946 6.3374786 -5.639801c0.5353546 -0.41026306 1.0723267 -0.80519104 1.6107941 -1.1845093c0.2692337 -0.18965149 0.53884125 -0.37539673 0.808815 -0.5572052l0.25694275 -0.17105103" fill-rule="evenodd"/><path fill="#f3f3f3" stroke="#f3f3f3" stroke-width="3.0" stroke-linecap="butt" d="m130.3384 147.5712l11.330536 -9.028961l-14.483398 -0.36654663z" fill-rule="evenodd"/><path fill="#000000" fill-opacity="0.0" d="m235.85695 226.37534c0 14.91449 63.7874 13.506165 127.574814 29.82898c63.787384 16.322845 127.5748 50.37686 127.5748 100.75369" fill-rule="evenodd"/><path stroke="#ffffff" stroke-width="3.0" stroke-linejoin="round" stroke-linecap="butt" d="m235.85695 226.37534c0 14.91449 63.7874 13.506165 127.574814 29.82901c31.893707 8.161407 63.787384 20.755615 87.70767 37.606567c11.960144 8.425476 21.92691 17.915161 28.903656 28.446991c3.4884033 5.26593 6.229248 10.792389 8.098022 16.57666l0.10684204 0.3360901" fill-rule="evenodd"/><path fill="#ffffff" stroke="#ffffff" stroke-width="3.0" stroke-linecap="butt" d="m483.3513 339.93005l6.983124 12.694061l2.8102112 -14.212891z" fill-rule="evenodd"/><path fill="#000000" fill-opacity="0.0" d="m491.00656 226.37534c0 14.91449 -63.787415 13.506165 -127.5748 29.82898c-63.787415 16.322845 -127.574814 50.37686 -127.574814 100.75369" fill-rule="evenodd"/><path stroke="#ffffff" stroke-width="3.0" stroke-linejoin="round" stroke-linecap="butt" d="m491.00656 226.37534c0 14.91449 -63.787415 13.506165 -127.5748 29.82901c-31.893707 8.161407 -63.787415 20.755615 -87.70767 37.606567c-11.960144 8.425476 -21.926926 17.915161 -28.903671 28.446991c-3.4883728 5.26593 -6.229248 10.792389 -8.098022 16.57666l-0.10682678 0.3360901" fill-rule="evenodd"/><path fill="#ffffff" stroke="#ffffff" stroke-width="3.0" stroke-linecap="butt" d="m233.7189 338.41122l2.8101807 14.212891l6.983139 -12.694061z" fill-rule="evenodd"/><path fill="#000000" fill-opacity="0.0" d="m332.52756 259.67847l61.826782 0l0 44.126007l-61.826782 0z" fill-rule="evenodd"/><path fill="#ffffff" d="m357.57767 274.6796l-2.421875 11.421875l-1.28125 0l0.296875 -1.1875l-0.03125 0q-0.53125 0.71875 -1.171875 1.0625q-0.640625 0.328125 -1.5625 0.328125q-1.515625 0 -2.390625 -0.921875q-0.859375 -0.921875 -0.859375 -2.484375q0 -2.078125 1.296875 -3.671875q1.296875 -1.59375 3.296875 -1.59375q0.96875 0 1.65625 0.375q0.6875 0.375 0.90625 1.078125l0.03125 0l0.890625 -4.40625l1.34375 0zm-8.0625 8.21875q0 1.078125 0.53125 1.640625q0.546875 0.546875 1.578125 0.546875q1.390625 0 2.3125 -1.296875q0.9375 -1.296875 0.9375 -2.8125q0 -0.953125 -0.5625 -1.546875q-0.5625 -0.59375 -1.53125 -0.59375q-1.421875 0 -2.34375 1.234375q-0.921875 1.21875 -0.921875 2.828125zm12.28125 -5.265625q1.5 0 2.25 0.53125q0.765625 0.515625 0.765625 1.578125q0 0.25 -0.046875 0.5625q-0.046875 0.3125 -0.109375 0.546875l-0.734375 3.125q-0.109375 0.484375 -0.109375 0.71875q0 0.21875 0.078125 0.359375q0.09375 0.140625 0.328125 0.140625q0.109375 0 0.203125 -0.03125l0.21875 -0.078125l-0.203125 1.015625q-0.15625 0.078125 -0.40625 0.140625q-0.25 0.0625 -0.4375 0.0625q-0.484375 0 -0.78125 -0.265625q-0.28125 -0.265625 -0.28125 -0.78125q0 -0.078125 0.015625 -0.125l-0.046875 -0.046875q-0.5 0.65625 -1.171875 0.9375q-0.671875 0.28125 -1.59375 0.28125q-1.171875 0 -1.859375 -0.59375q-0.671875 -0.609375 -0.671875 -1.75q0 -1.203125 0.828125 -1.875q0.828125 -0.6875 3.765625 -0.890625q0.875 -0.0625 1.265625 -0.3125q0.390625 -0.25 0.390625 -0.953125q0 -0.546875 -0.453125 -0.8125q-0.453125 -0.28125 -1.203125 -0.28125q-0.890625 0 -1.5 0.390625q-0.609375 0.375 -0.71875 1.09375l-1.359375 0q0.171875 -1.28125 1.140625 -1.984375q0.984375 -0.703125 2.4375 -0.703125zm1.265625 4.234375q-0.484375 0.328125 -1.625 0.4375q-1.6875 0.140625 -2.28125 0.515625q-0.59375 0.375 -0.59375 1.109375q0 0.546875 0.421875 0.859375q0.4375 0.296875 1.078125 0.296875q0.875 0 1.453125 -0.3125q0.59375 -0.328125 0.921875 -0.859375q0.34375 -0.53125 0.65625 -2.046875l-0.03125 0zm6.6484375 -6.484375l-0.5 2.4375l1.640625 0l-0.25 1.203125l-1.65625 0l-1.0 4.828125q-0.0625 0.28125 -0.0625 0.578125q0 0.296875 0.21875 0.4375q0.21875 0.125 0.59375 0.125q0.15625 0 0.34375 -0.03125q0.1875 -0.03125 0.4375 -0.109375l-0.234375 1.234375l0 0.015625q-0.265625 0.046875 -0.5 0.0625q-0.234375 0.03125 -0.46875 0.03125q-0.96875 0 -1.421875 -0.34375q-0.4375 -0.359375 -0.4375 -1.0q0 -0.140625 0.015625 -0.34375q0.03125 -0.203125 0.078125 -0.390625l1.078125 -5.09375l-1.390625 0l0.25 -1.203125l1.40625 0l0.5 -2.4375l1.359375 0zm5.4296875 2.25q1.5 0 2.25 0.53125q0.765625 0.515625 0.765625 1.578125q0 0.25 -0.046875 0.5625q-0.046875 0.3125 -0.109375 0.546875l-0.734375 3.125q-0.109375 0.484375 -0.109375 0.71875q0 0.21875 0.078125 0.359375q0.09375 0.140625 0.328125 0.140625q0.109375 0 0.203125 -0.03125l0.21875 -0.078125l-0.203125 1.015625q-0.15625 0.078125 -0.40625 0.140625q-0.25 0.0625 -0.4375 0.0625q-0.484375 0 -0.78125 -0.265625q-0.28125 -0.265625 -0.28125 -0.78125q0 -0.078125 0.015625 -0.125l-0.046875 -0.046875q-0.5 0.65625 -1.171875 0.9375q-0.671875 0.28125 -1.59375 0.28125q-1.171875 0 -1.859375 -0.59375q-0.671875 -0.609375 -0.671875 -1.75q0 -1.203125 0.828125 -1.875q0.828125 -0.6875 3.765625 -0.890625q0.875 -0.0625 1.265625 -0.3125q0.390625 -0.25 0.390625 -0.953125q0 -0.546875 -0.453125 -0.8125q-0.453125 -0.28125 -1.203125 -0.28125q-0.890625 0 -1.5 0.390625q-0.609375 0.375 -0.71875 1.09375l-1.359375 0q0.171875 -1.28125 1.140625 -1.984375q0.984375 -0.703125 2.4375 -0.703125zm1.265625 4.234375q-0.484375 0.328125 -1.625 0.4375q-1.6875 0.140625 -2.28125 0.515625q-0.59375 0.375 -0.59375 1.109375q0 0.546875 0.421875 0.859375q0.4375 0.296875 1.078125 0.296875q0.875 0 1.453125 -0.3125q0.59375 -0.328125 0.921875 -0.859375q0.34375 -0.53125 0.65625 -2.046875l-0.03125 0z" fill-rule="nonzero"/><path fill="#000000" fill-opacity="0.0" d="m581.03937 259.67847l71.27557 0l0 44.126007l-71.27557 0z" fill-rule="evenodd"/><path fill="#ffffff" d="m599.3178 277.63272q0.890625 0 1.390625 0.390625q0.515625 0.375 0.6875 1.09375q0.453125 -0.65625 1.21875 -1.0625q0.765625 -0.421875 1.609375 -0.421875q1.0625 0 1.671875 0.5q0.625 0.484375 0.625 1.359375q0 0.328125 -0.0625 0.703125q-0.046875 0.359375 -0.171875 0.9375l-1.046875 4.96875l-1.359375 0l1.125 -5.109375q0.125 -0.578125 0.140625 -0.796875q0.015625 -0.21875 0.015625 -0.234375q0 -0.484375 -0.375 -0.796875q-0.359375 -0.328125 -0.890625 -0.328125q-0.6875 0 -1.390625 0.5q-0.6875 0.5 -0.96875 1.03125q-0.28125 0.53125 -0.453125 1.375l-0.9375 4.359375l-1.359375 0l0.953125 -4.546875q0.15625 -0.765625 0.21875 -1.125q0.078125 -0.375 0.078125 -0.515625q0 -0.515625 -0.3125 -0.796875q-0.296875 -0.28125 -0.84375 -0.28125q-0.734375 0 -1.4375 0.53125q-0.6875 0.53125 -0.96875 0.96875q-0.28125 0.421875 -0.5 1.359375l-0.9375 4.40625l-1.359375 0l1.765625 -8.28125l1.265625 0l-0.3125 1.234375l0.03125 0.03125q0.578125 -0.703125 1.3125 -1.078125q0.75 -0.375 1.578125 -0.375zm12.5078125 0q1.5 0 2.25 0.53125q0.765625 0.515625 0.765625 1.578125q0 0.25 -0.046875 0.5625q-0.046875 0.3125 -0.109375 0.546875l-0.734375 3.125q-0.109375 0.484375 -0.109375 0.71875q0 0.21875 0.078125 0.359375q0.09375 0.140625 0.328125 0.140625q0.109375 0 0.203125 -0.03125l0.21875 -0.078125l-0.203125 1.015625q-0.15625 0.078125 -0.40625 0.140625q-0.25 0.0625 -0.4375 0.0625q-0.484375 0 -0.78125 -0.265625q-0.28125 -0.265625 -0.28125 -0.78125q0 -0.078125 0.015625 -0.125l-0.046875 -0.046875q-0.5 0.65625 -1.171875 0.9375q-0.671875 0.28125 -1.59375 0.28125q-1.171875 0 -1.859375 -0.59375q-0.671875 -0.609375 -0.671875 -1.75q0 -1.203125 0.828125 -1.875q0.828125 -0.6875 3.765625 -0.890625q0.875 -0.0625 1.265625 -0.3125q0.390625 -0.25 0.390625 -0.953125q0 -0.546875 -0.453125 -0.8125q-0.453125 -0.28125 -1.203125 -0.28125q-0.890625 0 -1.5 0.390625q-0.609375 0.375 -0.71875 1.09375l-1.359375 0q0.171875 -1.28125 1.140625 -1.984375q0.984375 -0.703125 2.4375 -0.703125zm1.265625 4.234375q-0.484375 0.328125 -1.625 0.4375q-1.6875 0.140625 -2.28125 0.515625q-0.59375 0.375 -0.59375 1.109375q0 0.546875 0.421875 0.859375q0.4375 0.296875 1.078125 0.296875q0.875 0 1.453125 -0.3125q0.59375 -0.328125 0.921875 -0.859375q0.34375 -0.53125 0.65625 -2.046875l-0.03125 0zm6.6484375 -6.484375l-0.5 2.4375l1.640625 0l-0.25 1.203125l-1.65625 0l-1.0 4.828125q-0.0625 0.28125 -0.0625 0.578125q0 0.296875 0.21875 0.4375q0.21875 0.125 0.59375 0.125q0.15625 0 0.34375 -0.03125q0.1875 -0.03125 0.4375 -0.109375l-0.234375 1.234375l0 0.015625q-0.265625 0.046875 -0.5 0.0625q-0.234375 0.03125 -0.46875 0.03125q-0.96875 0 -1.421875 -0.34375q-0.4375 -0.359375 -0.4375 -1.0q0 -0.140625 0.015625 -0.34375q0.03125 -0.203125 0.078125 -0.390625l1.078125 -5.09375l-1.390625 0l0.25 -1.203125l1.40625 0l0.5 -2.4375l1.359375 0zm5.0390625 0l-0.5 2.4375l1.640625 0l-0.25 1.203125l-1.65625 0l-1.0 4.828125q-0.0625 0.28125 -0.0625 0.578125q0 0.296875 0.21875 0.4375q0.21875 0.125 0.59375 0.125q0.15625 0 0.34375 -0.03125q0.1875 -0.03125 0.4375 -0.109375l-0.234375 1.234375l0 0.015625q-0.265625 0.046875 -0.5 0.0625q-0.234375 0.03125 -0.46875 0.03125q-0.96875 0 -1.421875 -0.34375q-0.4375 -0.359375 -0.4375 -1.0q0 -0.140625 0.015625 -0.34375q0.03125 -0.203125 0.078125 -0.390625l1.078125 -5.09375l-1.390625 0l0.25 -1.203125l1.40625 0l0.5 -2.4375l1.359375 0zm5.3203125 2.25q1.75 0 2.625 0.921875q0.875 0.921875 0.875 2.734375q0 0.265625 -0.046875 0.609375q-0.046875 0.328125 -0.078125 0.46875l-6.21875 0q-0.03125 0.203125 -0.046875 0.390625q0 0.171875 0 0.328125q0 0.90625 0.625 1.453125q0.625 0.546875 1.515625 0.546875q0.859375 0 1.46875 -0.390625q0.609375 -0.40625 0.90625 -1.1875l1.359375 0q-0.328125 1.359375 -1.34375 2.078125q-1.015625 0.71875 -2.390625 0.71875q-1.6875 0 -2.609375 -0.921875q-0.90625 -0.9375 -0.90625 -2.4375q0 -2.25 1.234375 -3.78125q1.25 -1.53125 3.03125 -1.53125zm-2.65625 3.53125l4.796875 0q0.015625 -0.0625 0.015625 -0.109375q0 -0.046875 0 -0.109375q0 -0.96875 -0.515625 -1.53125q-0.515625 -0.578125 -1.453125 -0.578125q-0.984375 0 -1.734375 0.578125q-0.734375 0.5625 -1.109375 1.75zm12.625 -3.546875q0.203125 0 0.25 0.015625l-0.3125 1.453125q-0.046875 -0.015625 -0.328125 -0.015625q-0.953125 0 -1.453125 0.296875q-0.484375 0.28125 -1.015625 0.875q-0.515625 0.578125 -0.875 2.1875l-0.78125 3.671875l-1.359375 0l1.734375 -8.28125l1.28125 0l-0.40625 1.78125l0.03125 0q0.328125 -0.59375 0.734375 -1.0q0.40625 -0.40625 0.875 -0.640625q0.296875 -0.15625 0.59375 -0.21875q0.3125 -0.078125 0.65625 -0.109375q0.125 -0.015625 0.1875 -0.015625q0.078125 0 0.1875 0z" fill-rule="nonzero"/><path fill="#000000" fill-opacity="0.0" d="m74.56693 259.67847l71.27558 0l0 44.126007l-71.27558 0z" fill-rule="evenodd"/><path fill="#ffffff" d="m92.84535 277.63272q0.890625 0 1.390625 0.390625q0.515625 0.375 0.6875 1.09375q0.453125 -0.65625 1.21875 -1.0625q0.765625 -0.421875 1.609375 -0.421875q1.0625 0 1.671875 0.5q0.625 0.484375 0.625 1.359375q0 0.328125 -0.0625 0.703125q-0.046875 0.359375 -0.171875 0.9375l-1.046875 4.96875l-1.359375 0l1.125 -5.109375q0.125 -0.578125 0.140625 -0.796875q0.015625 -0.21875 0.015625 -0.234375q0 -0.484375 -0.375 -0.796875q-0.359375 -0.328125 -0.890625 -0.328125q-0.6875 0 -1.390625 0.5q-0.6875 0.5 -0.96875 1.03125q-0.28125 0.53125 -0.453125 1.375l-0.9375 4.359375l-1.359375 0l0.953125 -4.546875q0.15625 -0.765625 0.21875 -1.125q0.078125 -0.375 0.078125 -0.515625q0 -0.515625 -0.3125 -0.796875q-0.296875 -0.28125 -0.84375 -0.28125q-0.734375 0 -1.4375 0.53125q-0.6875 0.53125 -0.96875 0.96875q-0.28125 0.421875 -0.5 1.359375l-0.9375 4.40625l-1.359375 0l1.765625 -8.28125l1.265625 0l-0.3125 1.234375l0.03125 0.03125q0.578125 -0.703125 1.3125 -1.078125q0.75 -0.375 1.578125 -0.375zm12.5078125 0q1.5 0 2.25 0.53125q0.765625 0.515625 0.765625 1.578125q0 0.25 -0.046875 0.5625q-0.046875 0.3125 -0.109375 0.546875l-0.734375 3.125q-0.109375 0.484375 -0.109375 0.71875q0 0.21875 0.078125 0.359375q0.09375 0.140625 0.328125 0.140625q0.109375 0 0.203125 -0.03125l0.21875 -0.078125l-0.203125 1.015625q-0.15625 0.078125 -0.40625 0.140625q-0.25 0.0625 -0.4375 0.0625q-0.484375 0 -0.78125 -0.265625q-0.28125 -0.265625 -0.28125 -0.78125q0 -0.078125 0.015625 -0.125l-0.046875 -0.046875q-0.5 0.65625 -1.171875 0.9375q-0.671875 0.28125 -1.59375 0.28125q-1.171875 0 -1.859375 -0.59375q-0.671875 -0.609375 -0.671875 -1.75q0 -1.203125 0.828125 -1.875q0.828125 -0.6875 3.765625 -0.890625q0.875 -0.0625 1.265625 -0.3125q0.390625 -0.25 0.390625 -0.953125q0 -0.546875 -0.453125 -0.8125q-0.453125 -0.28125 -1.203125 -0.28125q-0.890625 0 -1.5 0.390625q-0.609375 0.375 -0.71875 1.09375l-1.359375 0q0.171875 -1.28125 1.140625 -1.984375q0.984375 -0.703125 2.4375 -0.703125zm1.265625 4.234375q-0.484375 0.328125 -1.625 0.4375q-1.6875 0.140625 -2.28125 0.515625q-0.59375 0.375 -0.59375 1.109375q0 0.546875 0.421875 0.859375q0.4375 0.296875 1.078125 0.296875q0.875 0 1.453125 -0.3125q0.59375 -0.328125 0.921875 -0.859375q0.34375 -0.53125 0.65625 -2.046875l-0.03125 0zm6.6484375 -6.484375l-0.5 2.4375l1.640625 0l-0.25 1.203125l-1.65625 0l-1.0 4.828125q-0.0625 0.28125 -0.0625 0.578125q0 0.296875 0.21875 0.4375q0.21875 0.125 0.59375 0.125q0.15625 0 0.34375 -0.03125q0.1875 -0.03125 0.4375 -0.109375l-0.234375 1.234375l0 0.015625q-0.265625 0.046875 -0.5 0.0625q-0.234375 0.03125 -0.46875 0.03125q-0.96875 0 -1.421875 -0.34375q-0.4375 -0.359375 -0.4375 -1.0q0 -0.140625 0.015625 -0.34375q0.03125 -0.203125 0.078125 -0.390625l1.078125 -5.09375l-1.390625 0l0.25 -1.203125l1.40625 0l0.5 -2.4375l1.359375 0zm5.0390625 0l-0.5 2.4375l1.640625 0l-0.25 1.203125l-1.65625 0l-1.0 4.828125q-0.0625 0.28125 -0.0625 0.578125q0 0.296875 0.21875 0.4375q0.21875 0.125 0.59375 0.125q0.15625 0 0.34375 -0.03125q0.1875 -0.03125 0.4375 -0.109375l-0.234375 1.234375l0 0.015625q-0.265625 0.046875 -0.5 0.0625q-0.234375 0.03125 -0.46875 0.03125q-0.96875 0 -1.421875 -0.34375q-0.4375 -0.359375 -0.4375 -1.0q0 -0.140625 0.015625 -0.34375q0.03125 -0.203125 0.078125 -0.390625l1.078125 -5.09375l-1.390625 0l0.25 -1.203125l1.40625 0l0.5 -2.4375l1.359375 0zm5.3203125 2.25q1.75 0 2.625 0.921875q0.875 0.921875 0.875 2.734375q0 0.265625 -0.046875 0.609375q-0.046875 0.328125 -0.078125 0.46875l-6.21875 0q-0.03125 0.203125 -0.046875 0.390625q0 0.171875 0 0.328125q0 0.90625 0.625 1.453125q0.625 0.546875 1.515625 0.546875q0.859375 0 1.46875 -0.390625q0.609375 -0.40625 0.90625 -1.1875l1.359375 0q-0.328125 1.359375 -1.34375 2.078125q-1.015625 0.71875 -2.390625 0.71875q-1.6875 0 -2.609375 -0.921875q-0.90625 -0.9375 -0.90625 -2.4375q0 -2.25 1.234375 -3.78125q1.25 -1.53125 3.03125 -1.53125zm-2.65625 3.53125l4.796875 0q0.015625 -0.0625 0.015625 -0.109375q0 -0.046875 0 -0.109375q0 -0.96875 -0.515625 -1.53125q-0.515625 -0.578125 -1.453125 -0.578125q-0.984375 0 -1.734375 0.578125q-0.734375 0.5625 -1.109375 1.75zm12.625 -3.546875q0.203125 0 0.25 0.015625l-0.3125 1.453125q-0.046875 -0.015625 -0.328125 -0.015625q-0.953125 0 -1.453125 0.296875q-0.484375 0.28125 -1.015625 0.875q-0.515625 0.578125 -0.875 2.1875l-0.78125 3.671875l-1.359375 0l1.734375 -8.28125l1.28125 0l-0.40625 1.78125l0.03125 0q0.328125 -0.59375 0.734375 -1.0q0.40625 -0.40625 0.875 -0.640625q0.296875 -0.15625 0.59375 -0.21875q0.3125 -0.078125 0.65625 -0.109375q0.125 -0.015625 0.1875 -0.015625q0.078125 0 0.1875 0z" fill-rule="nonzero"/></g></svg>